<?xml version="1.0" encoding="utf-8"?>
<!-- Generator: Adobe Illustrator 16.0.4, SVG Export Plug-In . SVG Version: 6.00 Build 0)  -->
<!DOCTYPE svg PUBLIC "-//W3C//DTD SVG 1.1//EN" "http://www.w3.org/Graphics/SVG/1.1/DTD/svg11.dtd">
<svg version="1.1" id="Layer_1" xmlns:ev="http://www.w3.org/2001/xml-events"
	 xmlns="http://www.w3.org/2000/svg" xmlns:xlink="http://www.w3.org/1999/xlink" x="0px" y="0px" width="956.066px"
	 height="622.075px" viewBox="-242.861 248.816 956.066 622.075" enable-background="new -242.861 248.816 956.066 622.075"
	 xml:space="preserve">
<title></title>
<desc>
	Creator: FreeHEP Graphics2D Driver Producer: org.freehep.graphicsio.svg.SVGGraphics2D Revision: 12753  Source:  Date: Monday, June 3, 2013 4:40:55 AM CEST
	</desc>
<g transform="matrix(1.6491887476862743, 0, 0, 1.6491887476862743, 201.02157122567252, 8.425020702063193)">
	<g>
		
			<path fill="none" stroke="#AFAFAF" stroke-width="0.635" stroke-linecap="round" stroke-linejoin="round" stroke-miterlimit="10" d="
			M199.844,238.145c25.771-10.801,53.82-8.006,62.649,6.242"/>
	</g>
</g>
<g transform="matrix(-0.9658832732580406, 0.4047932898542035, -0.4047932898542035, -0.9658832732580406, 630.0936469768944, 143.18983206939168)">
	<g>
		<path fill="#AFAFAF" d="M182.829-189.971c0.277,0.001,0.5-0.223,0.501-0.5c0.001-0.277-0.221-0.499-0.498-0.5L182.829-189.971z"/>
	</g>
</g>
<g transform="matrix(4.8950513493243495, 7.899519460900511, -7.899519460900511, 4.8950513493243495, 743.2037967664794, 169.28442652818373)">
	<g>
		<path fill="#AFAFAF" d="M15.958,23.223c0.667,0.333,1.333,0.5,2,0.5c-0.667,0-1.333,0.167-2,0.5L15.958,23.223z"/>
	</g>
</g>
<g transform="matrix(1.6491887476862743, 0, 0, 1.6491887476862743, 201.02157122567252, 8.425020702063193)">
	<g>
		
			<path fill="none" stroke="#000000" stroke-width="2.4733" stroke-linecap="round" stroke-linejoin="round" stroke-miterlimit="10" d="
			M179.004,245.177c-17.657,4.584-31.606,9.86-35.008-4.693"/>
	</g>
</g>
<g transform="matrix(3.9480065648524203, -1.024958912485884, 1.024958912485884, 3.9480065648524203, 595.7235529296929, 154.78726324051237)">
	<g>
		<path d="M-39.502,55.589c0.276,0,0.5-0.224,0.5-0.5c0-0.276-0.223-0.5-0.5-0.5L-39.502,55.589z"/>
	</g>
</g>
<g transform="matrix(-2.8053728697046, -12.00130274821614, 12.00130274821614, -2.8053728697046, 532.3788613717575, 123.0430724622367)">
	<g>
		<path d="M-20.545-13.125c0.667,0.333,1.333,0.5,2,0.5c-0.667,0-1.333,0.167-2,0.5L-20.545-13.125z"/>
	</g>
</g>
<g transform="matrix(1.6491887476862743, 0, 0, 1.6491887476862743, 201.02157122567252, 8.425020702063193)">
	<g>
		
			<path fill="none" stroke="#8A8A8A" stroke-width="0.9301" stroke-linecap="round" stroke-linejoin="round" stroke-miterlimit="10" d="
			M150.498,218.731l19.591,11.838"/>
	</g>
</g>
<g transform="matrix(-1.3128661059976534, -0.7933712847592649, 0.7933712847592649, -1.3128661059976534, 548.7124885331569, 111.17334748550779)">
	<g>
		<path fill="#8A8A8A" d="M-31.472-176.984c0.277,0,0.5-0.223,0.5-0.5c0-0.276-0.224-0.5-0.5-0.5L-31.472-176.984z"/>
	</g>
</g>
<g transform="matrix(8.370265835756914, 5.058191790886949, -5.058191790886949, 8.370265835756914, 597.7609814844975, 140.81358702748312)">
	<g>
		<path fill="#8A8A8A" d="M2.936,27.338c0.667,0.333,1.333,0.5,2,0.5c-0.667,0-1.333,0.167-2,0.5L2.936,27.338z"/>
	</g>
</g>
<g transform="matrix(1.6491887476862743, 0, 0, 1.6491887476862743, 201.02157122567252, 8.425020702063193)">
	<g>
		
			<path fill="none" stroke="#D7D7D7" stroke-width="0.311" stroke-linecap="round" stroke-linejoin="round" stroke-miterlimit="10" d="
			M156.12,293.282l62.814,34.619"/>
	</g>
</g>
<g transform="matrix(-0.4491592214263854, -0.24754868249127363, 0.24754868249127363, -0.4491592214263854, 557.9857025208871, 234.12164447191705)">
	<g>
		<path fill="#D7D7D7" d="M-72.903-533.684c0.276,0,0.502-0.225,0.501-0.502c0.001-0.274-0.224-0.498-0.504-0.5L-72.903-533.684z"/>
	</g>
</g>
<g transform="matrix(7.670913406689083, 4.227731318306581, -4.227731318306581, 7.670913406689083, 676.9204308375523, 299.67108416448144)">
	<g>
		<path fill="#D7D7D7" d="M2.269,30.778c0.667,0.333,1.333,0.5,2,0.5c-0.667,0-1.333,0.167-2,0.5L2.269,30.778z"/>
	</g>
</g>
<g transform="matrix(1.6491887476862743, 0, 0, 1.6491887476862743, 201.02157122567252, 8.425020702063193)">
	<g>
		
			<path fill="none" stroke="#000000" stroke-width="3.1576" stroke-linecap="round" stroke-linejoin="round" stroke-miterlimit="10" d="
			M158.524,281.832l84.272-7.601"/>
	</g>
</g>
<g transform="matrix(-5.186385480086401, 0.46781035024203305, -0.46781035024203305, -5.186385480086401, 561.9490803496087, 215.23780922825324)">
	<g>
		<path d="M23.479-47.124c0.276,0,0.5-0.224,0.5-0.5c0-0.276-0.224-0.5-0.5-0.5L23.479-47.124z"/>
	</g>
</g>
<g transform="matrix(13.398988488151288, -1.208584576213683, 1.208584576213683, 13.398988488151288, 727.7270501905209, 200.2846881323646)">
	<g>
		<path d="M-11.088,17.934c0.667,0.333,1.333,0.5,2,0.5c-0.667,0-1.333,0.167-2,0.5L-11.088,17.934z"/>
	</g>
</g>
<g transform="matrix(1.6491887476862743, 0, 0, 1.6491887476862743, 201.02157122567252, 8.425020702063193)">
	<g>
		
			<path fill="none" stroke="#C4C4C4" stroke-width="0.4632" stroke-linecap="round" stroke-linejoin="round" stroke-miterlimit="10" d="
			M88.459,170.463l37.616,84.891"/>
	</g>
</g>
<g transform="matrix(-0.3094724367172269, -0.6984009395931915, 0.6984009395931915, -0.3094724367172269, 446.3994971491966, 31.569781852252166)">
	<g>
		<path fill="#C4C4C4" d="M-256-255.393c0.277-0.002,0.5-0.224,0.5-0.5c0-0.277-0.224-0.501-0.5-0.501L-256-255.393z"/>
	</g>
</g>
<g transform="matrix(3.650100358947914, 8.237352403141383, -8.237352403141383, 3.650100358947914, 515.7361623079062, 188.04508094116022)">
	<g>
		<path fill="#C4C4C4" d="M19.705,21.196c0.667,0.333,1.333,0.5,2,0.5c-0.667,0-1.333,0.167-2,0.5L19.705,21.196z"/>
	</g>
</g>
<g transform="matrix(1.6491887476862743, 0, 0, 1.6491887476862743, 201.02157122567252, 8.425020702063193)">
	<g>
		
			<path fill="none" stroke="#494949" stroke-width="1.4472" stroke-linecap="round" stroke-linejoin="round" stroke-miterlimit="10" d="
			M13.008,497.723L121.96,312.001"/>
	</g>
</g>
<g transform="matrix(-1.207682396747739, 2.058640197697553, -2.058640197697553, -1.207682396747739, 321.96613508777574, 571.2833059526322)">
	<g>
		<path fill="#494949" d="M114.324-18.238c0.276,0,0.5-0.224,0.5-0.5c0-0.276-0.224-0.5-0.499-0.5L114.324-18.238z"/>
	</g>
</g>
<g transform="matrix(5.3801136103434954, -9.171052071521025, 9.171052071521025, 5.3801136103434954, 512.4089461543175, 246.65058191865313)">
	<g>
		<path fill="#494949" d="M-27.662,3.706c0.667,0.333,1.333,0.5,2,0.5c-0.667,0-1.333,0.167-2,0.5L-27.662,3.706z"/>
	</g>
</g>
<g transform="matrix(1.6491887476862743, 0, 0, 1.6491887476862743, 201.02157122567252, 8.425020702063193)">
	<g>
		
			<path fill="none" stroke="#7F7F7F" stroke-width="1.0209" stroke-linecap="round" stroke-linejoin="round" stroke-miterlimit="10" d="
			M61.244,368.874l55.828-61.518"/>
	</g>
</g>
<g transform="matrix(-1.131494070104516, 1.2468206661010988, -1.2468206661010988, -1.131494070104516, 401.5161268109739, 358.78721309414834)">
	<g>
		<path fill="#7F7F7F" d="M153.176-58.712c0.277-0.001,0.5-0.224,0.5-0.5c0-0.276-0.224-0.5-0.5-0.501L153.176-58.712z"/>
	</g>
</g>
<g transform="matrix(6.673006962481202, -7.353147670574677, 7.353147670574677, 6.673006962481202, 506.93262084805093, 242.62623020785696)">
	<g>
		<path fill="#7F7F7F" d="M-27.973,9.54c0.667,0.333,1.333,0.5,2,0.5c-0.667,0-1.333,0.167-2,0.5L-27.973,9.54z"/>
	</g>
</g>
<g transform="matrix(1.6491887476862743, 0, 0, 1.6491887476862743, 201.02157122567252, 8.425020702063193)">
	<g>
		
			<path fill="none" stroke="#000000" stroke-width="2.0793" stroke-linecap="round" stroke-linejoin="round" stroke-miterlimit="10" d="
			M225.943,343.681c-29.565,2.351-61.549-11-71.442-29.818"/>
	</g>
</g>
<g transform="matrix(3.418381316479315, -0.27172009027718885, 0.27172009027718885, 3.418381316479315, 673.1358224922226, 317.2378533577851)">
	<g>
		<path d="M-34.884,73.196c0.277,0,0.5-0.224,0.5-0.5c0-0.276-0.224-0.5-0.5-0.5L-34.884,73.196z"/>
	</g>
</g>
<g transform="matrix(-5.433139372075808, -10.333882459693188, 10.333882459693188, -5.433139372075808, 544.4480411521693, 247.39555542461176)">
	<g>
		<path d="M-17.593-18.326c0.667,0.333,1.333,0.5,2,0.5c-0.667,0-1.333,0.167-2,0.5L-17.593-18.326z"/>
	</g>
</g>
<g transform="matrix(1.6491887476862743, 0, 0, 1.6491887476862743, 201.02157122567252, 8.425020702063193)">
	<g>
		
			<path fill="none" stroke="#C1C1C1" stroke-width="0.4922" stroke-linecap="round" stroke-linejoin="round" stroke-miterlimit="10" d="
			M82.954,171.215L55.98,354.765"/>
	</g>
</g>
<g transform="matrix(0.11803011622244396, -0.8031537479355573, 0.8031537479355573, 0.11803011622244396, 437.32037790040226, 32.80851986724602)">
	<g>
		<path fill="#C1C1C1" d="M-332.24-74.551c0.277,0.001,0.5-0.223,0.5-0.5c0-0.276-0.224-0.5-0.5-0.499L-332.24-74.551z"/>
	</g>
</g>
<g transform="matrix(-1.316962680960455, 8.96147141896585, -8.96147141896585, -1.316962680960455, 390.2008539777657, 353.4404352682451)">
	<g>
		<path fill="#C1C1C1" d="M27.776,6.226c0.667,0.333,1.333,0.5,2,0.5c-0.667,0-1.333,0.167-2,0.5L27.776,6.226z"/>
	</g>
</g>
<g transform="matrix(1.6491887476862743, 0, 0, 1.6491887476862743, 201.02157122567252, 8.425020702063193)">
	<g>
		
			<path fill="none" stroke="#D4D4D4" stroke-width="0.3398" stroke-linecap="round" stroke-linejoin="round" stroke-miterlimit="10" d="
			M84.115,171.316l-3.649,124.539"/>
	</g>
</g>
<g transform="matrix(0.016415351348829637, -0.560211440790465, 0.560211440790465, 0.016415351348829637, 439.2352044108537, 32.976696617048944)">
	<g>
		<path fill="#D4D4D4" d="M-465.312-163.463c0.275-0.001,0.5-0.224,0.5-0.501c0.002-0.274-0.224-0.499-0.5-0.5L-465.312-163.463z"/>
	</g>
</g>
<g transform="matrix(-0.2579348469366536, 8.802617084571452, -8.802617084571452, -0.2579348469366536, 432.70103383806963, 255.97022463623384)">
	<g>
		<path fill="#D4D4D4" d="M27.613,9.935c0.667,0.333,1.333,0.5,2,0.5c-0.667,0-1.333,0.167-2,0.5L27.613,9.935z"/>
	</g>
</g>
<g transform="matrix(1.6491887476862743, 0, 0, 1.6491887476862743, 201.02157122567252, 8.425020702063193)">
	<g>
		
			<path fill="none" stroke="#000000" stroke-width="3.5" stroke-linecap="round" stroke-linejoin="round" stroke-miterlimit="10" d="
			M93.12,166.231l153.61,86.572"/>
	</g>
</g>
<g transform="matrix(-5.028552507209357, -2.8339897440803323, 2.8339897440803323, -5.028552507209357, 454.08550285624415, 24.588980109733683)">
	<g>
		<path d="M-6.928-46.899c0.276,0,0.5-0.224,0.5-0.5c0-0.276-0.224-0.5-0.5-0.5L-6.928-46.899z"/>
	</g>
</g>
<g transform="matrix(12.212198946079868, 6.88254652133795, -6.88254652133795, 12.212198946079868, 731.8428753067408, 181.127376345801)">
	<g>
		<path d="M0.853,19.017c0.667,0.333,1.333,0.5,2,0.5c-0.667,0-1.333,0.167-2,0.5L0.853,19.017z"/>
	</g>
</g>
<g transform="matrix(1.6491887476862743, 0, 0, 1.6491887476862743, 201.02157122567252, 8.425020702063193)">
	<g>
		
			<path fill="none" stroke="#2F2F2F" stroke-width="1.6599" stroke-linecap="round" stroke-linejoin="round" stroke-miterlimit="10" d="
			M15.498,499.792l238.31-206.974"/>
	</g>
</g>
<g transform="matrix(-2.066802545321897, 1.7950414606825322, -1.7950414606825322, -2.066802545321897, 326.07262412877895, 574.6939679968356)">
	<g>
		<path fill="#2F2F2F" d="M89.235-46.819c0.276,0,0.5-0.224,0.5-0.5c0-0.276-0.224-0.5-0.5-0.5L89.235-46.819z"/>
	</g>
</g>
<g transform="matrix(8.292485153822376, -7.202117443148006, 7.202117443148006, 8.292485153822376, 735.6747428144874, 218.94988054713636)">
	<g>
		<path fill="#2F2F2F" d="M-24.241,11.294c0.667,0.333,1.333,0.5,2,0.5c-0.667,0-1.333,0.167-2,0.5L-24.241,11.294z"/>
	</g>
</g>
<g transform="matrix(1.6491887476862743, 0, 0, 1.6491887476862743, 201.02157122567252, 8.425020702063193)">
	<g>
		
			<path fill="none" stroke="#5F5F5F" stroke-width="1.2763" stroke-linecap="round" stroke-linejoin="round" stroke-miterlimit="10" d="
			M64.257,372.933l185.303-88"/>
	</g>
</g>
<g transform="matrix(-1.9013670338701893, 0.9029652577454956, -0.9029652577454956, -1.9013670338701893, 406.485510782369, 365.4809777074266)">
	<g>
		<path fill="#5F5F5F" d="M95.275-89.936c0.276,0,0.5-0.224,0.5-0.5c0-0.276-0.224-0.5-0.499-0.5L95.275-89.936z"/>
	</g>
</g>
<g transform="matrix(9.35002197922482, -4.4403552054922155, 4.4403552054922155, 9.35002197922482, 730.7828407180027, 211.47114325928305)">
	<g>
		<path fill="#5F5F5F" d="M-21.375,17.891c0.667,0.333,1.333,0.5,2,0.5c-0.667,0-1.333,0.167-2,0.5L-21.375,17.891z"/>
	</g>
</g>
<g transform="matrix(1.6491887476862743, 0, 0, 1.6491887476862743, 201.02157122567252, 8.425020702063193)">
	<g>
		
			<path fill="none" stroke="#131313" stroke-width="1.8844" stroke-linecap="round" stroke-linejoin="round" stroke-miterlimit="10" d="
			M46.952,258.824l198.29,10.379"/>
	</g>
</g>
<g transform="matrix(-3.103506151643581, -0.16246500421249005, 0.16246500421249005, -3.103506151643581, 377.9464751527281, 177.29129376366413)">
	<g>
		<path fill="#131313" d="M27.631-84.072c0.276-0.001,0.5-0.224,0.5-0.5c0-0.276-0.224-0.501-0.5-0.5L27.631-84.072z"/>
	</g>
</g>
<g transform="matrix(11.338174258488948, 0.5935404792711048, -0.5935404792711048, 11.338174258488948, 727.6387726922471, 195.59728634651947)">
	<g>
		<path fill="#131313" d="M-9.563,22.649c0.667,0.333,1.333,0.5,2,0.5c-0.667,0-1.333,0.167-2,0.5L-9.563,22.649z"/>
	</g>
</g>
<g transform="matrix(1.6491887476862743, 0, 0, 1.6491887476862743, 201.02157122567252, 8.425020702063193)">
	<g>
		
			<path fill="none" stroke="#000000" stroke-width="2.3835" stroke-linecap="round" stroke-linejoin="round" stroke-miterlimit="10" d="
			M266.827,466.563l9.982-160.893"/>
	</g>
</g>
<g transform="matrix(-0.24340486900596642, 3.9233360889848634, -3.9233360889848634, -0.24340486900596642, 740.5649840458393, 519.8934712917965)">
	<g>
		<path d="M67.071,21.698c0.276,0,0.5-0.224,0.5-0.5c0-0.276-0.224-0.5-0.5-0.5L67.071,21.698z"/>
	</g>
</g>
<g transform="matrix(0.7540038233608776, -12.153456188059192, 12.153456188059192, 0.7540038233608776, 758.5350414909499, 230.242014509289)">
	<g>
		<path d="M-23.652-7.343c0.667,0.333,1.333,0.5,2,0.5c-0.667,0-1.333,0.167-2,0.5L-23.652-7.343z"/>
	</g>
</g>
<g transform="matrix(1.6491887476862743, 0, 0, 1.6491887476862743, 201.02157122567252, 8.425020702063193)">
	<g>
		
			<path fill="none" stroke="#000000" stroke-width="2.2312" stroke-linecap="round" stroke-linejoin="round" stroke-miterlimit="10" d="
			M89.661,314.337l155.71-35.673"/>
	</g>
</g>
<g transform="matrix(-3.586801922423725, 0.8217223758815265, -0.8217223758815265, -3.586801922423725, 448.38141254516637, 268.8444962074892)">
	<g>
		<path d="M42.011-61.801c0.276,0,0.5-0.224,0.5-0.5c0-0.276-0.224-0.5-0.5-0.5L42.011-61.801z"/>
	</g>
</g>
<g transform="matrix(11.624513621156298, -2.663130877544814, 2.663130877544814, 11.624513621156298, 728.4266267161813, 204.68722638330058)">
	<g>
		<path d="M-14.963,18.723c0.667,0.333,1.333,0.5,2,0.5c-0.667,0-1.333,0.167-2,0.5L-14.963,18.723z"/>
	</g>
</g>
<g transform="matrix(1.6491887476862743, 0, 0, 1.6491887476862743, 201.02157122567252, 8.425020702063193)">
	<g>
		
			<path fill="none" stroke="#000000" stroke-width="2.0792" stroke-linecap="round" stroke-linejoin="round" stroke-miterlimit="10" d="
			M253.03,325.084l11.17-23.312"/>
	</g>
</g>
<g transform="matrix(-1.4818303467674279, 3.092233314002562, -3.092233314002562, -1.4818303467674279, 717.8093702019935, 286.56867011906644)">
	<g>
		<path d="M80.387-5.848c0.276,0,0.5-0.224,0.5-0.5c0-0.276-0.224-0.5-0.5-0.5L80.387-5.848z"/>
	</g>
</g>
<g transform="matrix(5.045333492254183, -10.52843082815464, 10.52843082815464, 5.045333492254183, 746.3235054369532, 227.06633971676249)">
	<g>
		<path d="M-25.61,1.364c0.667,0.333,1.333,0.5,2,0.5c-0.667,0-1.333,0.167-2,0.5L-25.61,1.364z"/>
	</g>
</g>
<g transform="matrix(1.6491887476862743, 0, 0, 1.6491887476862743, 201.02157122567252, 8.425020702063193)">
	<g>
		
			<path fill="none" stroke="#B5B5B5" stroke-width="0.5813" stroke-linecap="round" stroke-linejoin="round" stroke-miterlimit="10" d="
			M-57.68,325.047c86.745-35.665,223.536-60.69,305.535-55.896"/>
	</g>
</g>
<g transform="matrix(-0.8865928989221482, 0.3645217158788582, -0.3645217158788582, -0.8865928989221482, 205.38823691300374, 286.5071677799041)">
	<g>
		<path fill="#B5B5B5" d="M198.329-208.938c0.276-0.001,0.5-0.224,0.5-0.499c0.001-0.277-0.224-0.502-0.5-0.501L198.329-208.938z"/>
	</g>
</g>
<g transform="matrix(9.188859467218231, 0.5371895337621324, -0.5371895337621324, 9.188859467218231, 727.6498954557126, 195.39661105861015)">
	<g>
		<path fill="#B5B5B5" d="M-11.155,28.111c0.667,0.333,1.333,0.5,2,0.5c-0.667,0-1.333,0.167-2,0.5L-11.155,28.111z"/>
	</g>
</g>
<g transform="matrix(1.6491887476862743, 0, 0, 1.6491887476862743, 201.02157122567252, 8.425020702063193)">
	<g>
		
			<path fill="none" stroke="#D8D8D8" stroke-width="0.3051" stroke-linecap="round" stroke-linejoin="round" stroke-miterlimit="10" d="
			M-37.563,263.414c84.909-19.353,213.365-19.44,286.914-0.194"/>
	</g>
</g>
<g transform="matrix(-0.49060697561783845, 0.11182203520732285, -0.11182203520732285, -0.49060697561783845, 238.5644115323726, 184.86217131945648)">
	<g>
		<path fill="#D8D8D8" d="M306.714-455.434c0.277-0.001,0.501-0.224,0.5-0.499c0-0.279-0.223-0.501-0.499-0.5L306.714-455.434z"/>
	</g>
</g>
<g transform="matrix(8.464147946318217, 2.2148433434976513, -2.2148433434976513, 8.464147946318217, 728.668056111404, 188.97174302680475)">
	<g>
		<path fill="#D8D8D8" d="M-5.537,30.905c0.667,0.333,1.333,0.5,2,0.5c-0.667,0-1.333,0.167-2,0.5L-5.537,30.905z"/>
	</g>
</g>
<g transform="matrix(1.6491887476862743, 0, 0, 1.6491887476862743, 201.02157122567252, 8.425020702063193)">
	<g>
		
			<path fill="none" stroke="#686868" stroke-width="1.2015" stroke-linecap="round" stroke-linejoin="round" stroke-miterlimit="10" d="
			M159.538,407.672c15.221-49.288,55.801-103.833,90.638-121.831"/>
	</g>
</g>
<g transform="matrix(-0.5846999914106827, 1.8933263589402678, -1.8933263589402678, -0.5846999914106827, 563.620967587444, 422.7706834480322)">
	<g>
		<path fill="#686868" d="M139.21,10.058c0.276,0,0.5-0.224,0.501-0.5c-0.001-0.276-0.225-0.5-0.5-0.5L139.21,10.058z"/>
	</g>
</g>
<g transform="matrix(9.08653463667203, -4.694316489638976, 4.694316489638976, 9.08653463667203, 731.2732992246617, 212.46079239686026)">
	<g>
		<path fill="#686868" d="M-22.22,17.445c0.667,0.333,1.333,0.5,2,0.5c-0.667,0-1.333,0.167-2,0.5L-22.22,17.445z"/>
	</g>
</g>
<g transform="matrix(1.6491887476862743, 0, 0, 1.6491887476862743, 201.02157122567252, 8.425020702063193)">
	<g>
		
			<path fill="none" stroke="#7E7E7E" stroke-width="1.0266" stroke-linecap="round" stroke-linejoin="round" stroke-miterlimit="10" d="
			M199.301,366.723c4.003-36.522,26.386-73.959,49.995-83.617"/>
	</g>
</g>
<g transform="matrix(-0.1844799803064647, 1.6830181805077034, -1.6830181805077034, -0.1844799803064647, 629.2003028524, 355.2372396957703)">
	<g>
		<path fill="#7E7E7E" d="M157.868,42.312c0.276,0,0.5-0.224,0.501-0.501c0-0.276-0.223-0.5-0.499-0.5L157.868,42.312z"/>
	</g>
</g>
<g transform="matrix(9.199052053561317, -3.7632439510063476, 3.7632439510063476, 9.199052053561317, 730.0494429387277, 209.81031587335514)">
	<g>
		<path fill="#7E7E7E" d="M-21.093,19.734c0.667,0.333,1.333,0.5,2,0.5c-0.667,0-1.333,0.167-2,0.5L-21.093,19.734z"/>
	</g>
</g>
<g transform="matrix(1.6491887476862743, 0, 0, 1.6491887476862743, 201.02157122567252, 8.425020702063193)">
	<g>
		
			<path fill="none" stroke="#1A1A1A" stroke-width="1.8243" stroke-linecap="round" stroke-linejoin="round" stroke-miterlimit="10" d="
			M152.724,209.378c39.167-2.989,86.094,12.969,104.816,35.643"/>
	</g>
</g>
<g transform="matrix(-2.9998684359205727, 0.2289683876725457, -0.2289683876725457, -2.9998684359205727, 552.384485189554, 95.74804998173326)">
	<g>
		<path fill="#1A1A1A" d="M39.499-82.483c0.276,0,0.5-0.224,0.5-0.5c0-0.276-0.224-0.5-0.5-0.5L39.499-82.483z"/>
	</g>
</g>
<g transform="matrix(7.165548827776914, 8.678682845285058, -8.678682845285058, 7.165548827776914, 739.5773229134968, 171.88692669750998)">
	<g>
		<path fill="#1A1A1A" d="M10.048,20.911c0.667,0.333,1.333,0.5,2,0.5c-0.667,0-1.333,0.167-2,0.5L10.048,20.911z"/>
	</g>
</g>
<g transform="matrix(1.6491887476862743, 0, 0, 1.6491887476862743, 201.02157122567252, 8.425020702063193)">
	<g>
		
			<path fill="none" stroke="#050505" stroke-width="1.993" stroke-linecap="round" stroke-linejoin="round" stroke-miterlimit="10" d="
			M-40.015,258.688c16.172-14.554,35.411-22.672,47.405-15.478"/>
	</g>
</g>
<g transform="matrix(-2.4431922916994218, 2.1985615980237463, -2.1985615980237463, -2.4431922916994218, 234.52182805204978, 177.06703922379282)">
	<g>
		<path fill="#050505" d="M75.005-37.597c0.276,0,0.5-0.224,0.5-0.5c0-0.276-0.224-0.5-0.5-0.5L75.005-37.597z"/>
	</g>
</g>
<g transform="matrix(9.889490171887243, 5.9330833071979265, -5.9330833071979265, 9.889490171887243, 332.47987692432673, 163.40906579143524)">
	<g>
		<path fill="#050505" d="M2.11,23.12c0.667,0.333,1.333,0.5,2,0.5c-0.667,0-1.333,0.167-2,0.5L2.11,23.12z"/>
	</g>
</g>
<g transform="matrix(1.6491887476862743, 0, 0, 1.6491887476862743, 201.02157122567252, 8.425020702063193)">
	<g>
		
			<path fill="none" stroke="#505050" stroke-width="1.3903" stroke-linecap="round" stroke-linejoin="round" stroke-miterlimit="10" d="
			M-37.333,266.612c33.769,2.706,78.27,18.672,99.395,35.659"/>
	</g>
</g>
<g transform="matrix(-2.285521969389606, -0.18313424281934448, 0.18313424281934448, -2.285521969389606, 238.94502016749783, 190.13409697357642)">
	<g>
		<path fill="#505050" d="M34.267-115.122c0.276,0,0.5-0.224,0.5-0.5c0-0.276-0.224-0.5-0.5-0.5L34.267-115.122z"/>
	</g>
</g>
<g transform="matrix(8.2125297756148, 6.6045792803929535, -6.6045792803929535, 8.2125297756148, 419.2911584260893, 262.15440562920185)">
	<g>
		<path fill="#505050" d="M5.984,24.492c0.667,0.333,1.333,0.5,2,0.5c-0.667,0-1.333,0.167-2,0.5L5.984,24.492z"/>
	</g>
</g>
<g transform="matrix(1.6491887476862743, 0, 0, 1.6491887476862743, 201.02157122567252, 8.425020702063193)">
	<g>
		
			<path fill="none" stroke="#7D7D7D" stroke-width="1.0365" stroke-linecap="round" stroke-linejoin="round" stroke-miterlimit="10" d="
			M70.514,312.867l-97.345-38.726"/>
	</g>
</g>
<g transform="matrix(1.588249724776223, 0.6318440853427741, -0.6318440853427741, 1.588249724776223, 416.804994309933, 266.4174941205354)">
	<g>
		<path fill="#7D7D7D" d="M1.707,162.253c0.276,0.001,0.501-0.224,0.5-0.5c0-0.276-0.224-0.5-0.5-0.5L1.707,162.253z"/>
	</g>
</g>
<g transform="matrix(-9.250151117018246, -3.6799334390807585, 3.6799334390807585, -9.250151117018246, 237.76475844572352, 195.19096575761387)">
	<g>
		<path fill="#7D7D7D" d="M-2.293-28.273c0.667,0.333,1.333,0.5,2,0.5c-0.667,0-1.333,0.167-2,0.5L-2.293-28.273z"/>
	</g>
</g>
<g transform="matrix(1.6491887476862743, 0, 0, 1.6491887476862743, 201.02157122567252, 8.425020702063193)">
	<g>
		
			<path fill="none" stroke="#DCDCDC" stroke-width="0.1437" stroke-linecap="round" stroke-linejoin="round" stroke-miterlimit="10" d="
			M-64.072,319.242l10.144-33.504"/>
	</g>
</g>
<g transform="matrix(-0.06869759052664502, 0.2268901253503954, -0.2268901253503954, -0.06869759052664502, 194.84688869838027, 276.9328339106612)">
	<g>
		<path fill="#ECECEC" d="M1163.168,86.816c0.284,0,0.5-0.225,0.51-0.503c-0.005-0.274-0.229-0.499-0.504-0.499L1163.168,86.816z"/>
	</g>
</g>
<g transform="matrix(2.458266588660051, -8.119009854202043, 8.119009854202043, 2.458266588660051, 216.4926746348727, 205.4424796378467)">
	<g>
		<path fill="#ECECEC" d="M-34.505-2.912c0.667,0.333,1.333,0.5,2,0.5c-0.667,0-1.333,0.167-2,0.5L-34.505-2.912z"/>
	</g>
</g>
<g transform="matrix(1.6491887476862743, 0, 0, 1.6491887476862743, 201.02157122567252, 8.425020702063193)">
	<g>
		
			<path fill="none" stroke="#929292" stroke-width="0.8669" stroke-linecap="round" stroke-linejoin="round" stroke-miterlimit="10" d="
			M148.455,411.406c-42.803-30.637-90.5-88.232-106.531-128.645"/>
	</g>
</g>
<g transform="matrix(1.1625260673609683, 0.8320626933491053, -0.8320626933491053, 1.1625260673609683, 545.3439017389861, 428.9296494885286)">
	<g>
		<path fill="#929292" d="M48.437,187.747c0.277,0,0.5-0.224,0.501-0.5c0-0.277-0.224-0.5-0.501-0.5L48.437,187.747z"/>
	</g>
</g>
<g transform="matrix(-3.5678396165447204, -8.993715783963035, 8.993715783963035, -3.5678396165447204, 362.51736520853495, 198.77970525807032)">
	<g>
		<path fill="#929292" d="M-22.993-19.89c0.667,0.333,1.333,0.5,2,0.5c-0.667,0-1.333,0.167-2,0.5L-22.993-19.89z"/>
	</g>
</g>
<g transform="matrix(1.6491887476862743, 0, 0, 1.6491887476862743, 201.02157122567252, 8.425020702063193)">
	<g>
		
			<path fill="none" stroke="#000000" stroke-width="2.0342" stroke-linecap="round" stroke-linejoin="round" stroke-miterlimit="10" d="
			M11.239,496.906l32.334-92.794"/>
	</g>
</g>
<g transform="matrix(-1.1038764505102097, 3.1680109910106466, -3.1680109910106466, -1.1038764505102097, 319.0477811500385, 569.9345828062548)">
	<g>
		<path d="M82.375,3.202c0.276,0,0.5-0.224,0.5-0.5c0-0.276-0.224-0.5-0.5-0.5L82.375,3.202z"/>
	</g>
</g>
<g transform="matrix(3.8171354638788393, -10.954783117400002, 10.954783117400002, 3.8171354638788393, 380.00702999627663, 394.98785732862)">
	<g>
		<path d="M-25.822-1.281c0.667,0.333,1.333,0.5,2,0.5c-0.667,0-1.333,0.167-2,0.5L-25.822-1.281z"/>
	</g>
</g>
<g transform="matrix(1.6491887476862743, 0, 0, 1.6491887476862743, 201.02157122567252, 8.425020702063193)">
	<g>
		
			<path fill="none" stroke="#333333" stroke-width="1.6233" stroke-linecap="round" stroke-linejoin="round" stroke-miterlimit="10" d="
			M-14.396,441.736l188.505-56.235"/>
	</g>
</g>
<g transform="matrix(-2.5654208313217794, 0.7653323225122692, -0.7653323225122692, -2.5654208313217794, 276.7722521724216, 478.9480625128378)">
	<g>
		<path fill="#333333" d="M63.161-81.22c0.276,0,0.5-0.224,0.5-0.499c0-0.276-0.224-0.5-0.5-0.5L63.161-81.22z"/>
	</g>
</g>
<g transform="matrix(10.467233116740672, -3.1226501842136454, 3.1226501842136454, 10.467233116740672, 608.5866765728597, 379.95911653993966)">
	<g>
		<path fill="#333333" d="M-17.48,19.528c0.667,0.333,1.333,0.5,2,0.5c-0.667,0-1.333,0.167-2,0.5L-17.48,19.528z"/>
	</g>
</g>
<g transform="matrix(1.6491887476862743, 0, 0, 1.6491887476862743, 201.02157122567252, 8.425020702063193)">
	<g>
		<path fill="none" stroke="#666666" stroke-width="1.5" stroke-linecap="square" stroke-miterlimit="10" d="M199.95,242.407
			c0,5.675-4.601,10.276-10.276,10.276c-5.674,0-10.275-4.601-10.275-10.276s4.601-10.276,10.275-10.276
			C195.349,232.131,199.95,236.732,199.95,242.407z"/>
	</g>
</g>
<g transform="matrix(1.6491887476862743, 0, 0, 1.6491887476862743, 201.02157122567252, 8.425020702063193)">
	<g>
		<path fill="#FF9999" d="M199.95,242.407c0,5.675-4.601,10.276-10.276,10.276c-5.674,0-10.275-4.601-10.275-10.276
			s4.601-10.276,10.275-10.276C195.349,232.131,199.95,236.732,199.95,242.407z"/>
	</g>
</g>
<g transform="matrix(1.6491887476862743, 0, 0, 1.6491887476862743, 594.9585483836471, 157.69738834645503)">
	<text transform="matrix(0.6064 0 0 0.6064 -60.3276 156.4299)" font-family="'Helvetica-Bold'" font-size="19.7916">Law</text>
</g>
<g transform="matrix(1.6491887476862743, 0, 0, 1.6491887476862743, 201.02157122567252, 8.425020702063193)">
	<g>
		<path fill="none" stroke="#666666" stroke-width="1.5" stroke-linecap="square" stroke-miterlimit="10" d="M157.855,283.629
			c0,10.631-8.619,19.251-19.25,19.251c-10.631,0-19.25-8.619-19.25-19.251c0-10.63,8.619-19.25,19.25-19.25
			C149.236,264.379,157.855,272.999,157.855,283.629z"/>
	</g>
</g>
<g transform="matrix(1.6491887476862743, 0, 0, 1.6491887476862743, 201.02157122567252, 8.425020702063193)">
	<g>
		<path fill="#FF9999" d="M157.855,283.629c0,10.631-8.619,19.251-19.25,19.251c-10.631,0-19.25-8.619-19.25-19.251
			c0-10.63,8.619-19.25,19.25-19.25C149.236,264.379,157.855,272.999,157.855,283.629z"/>
	</g>
</g>
<g transform="matrix(1.6491887476862743, 0, 0, 1.6491887476862743, 500.5100553792707, 225.6802471048956)">
	<text transform="matrix(0.6064 0 0 0.6064 -60.3283 156.4302)" font-family="'Helvetica-Bold'" font-size="19.7916">Media</text>
</g>
<g transform="matrix(1.6491887476862743, 0, 0, 1.6491887476862743, 201.02157122567252, 8.425020702063193)">
	<g>
		<path fill="none" stroke="#666666" stroke-width="1.5" stroke-linecap="square" stroke-miterlimit="10" d="M93.658,161.321
			c0,5.108-4.141,9.25-9.25,9.25c-5.109,0-9.251-4.141-9.251-9.25c0-5.109,4.141-9.25,9.251-9.25
			C89.517,152.071,93.658,156.213,93.658,161.321z"/>
	</g>
</g>
<g transform="matrix(1.6491887476862743, 0, 0, 1.6491887476862743, 201.02157122567252, 8.425020702063193)">
	<g>
		<path fill="#FF9999" d="M93.658,161.321c0,5.108-4.141,9.25-9.25,9.25c-5.109,0-9.251-4.141-9.251-9.25
			c0-5.109,4.141-9.25,9.251-9.25C89.517,152.071,93.658,156.213,93.658,161.321z"/>
	</g>
</g>
<g transform="matrix(1.6491887476862743, 0, 0, 1.6491887476862743, 392.6728755756693, 23.971215346967362)">
	<text transform="matrix(0.6064 0 0 0.6064 -60.3281 156.4303)" font-family="'Helvetica-Bold'" font-size="19.7916">Education</text>
</g>
<g transform="matrix(1.6491887476862743, 0, 0, 1.6491887476862743, 201.02157122567252, 8.425020702063193)">
	<g>
		<path fill="none" stroke="#666666" stroke-width="1.5" stroke-linecap="square" stroke-miterlimit="10" d="M298.212,270.969
			c0,10.631-8.618,19.251-19.25,19.251c-10.633,0-19.251-8.618-19.251-19.251c0-10.631,8.618-19.249,19.251-19.249
			C289.594,251.719,298.212,260.337,298.212,270.969z"/>
	</g>
</g>
<g transform="matrix(1.6491887476862743, 0, 0, 1.6491887476862743, 201.02157122567252, 8.425020702063193)">
	<g>
		<path fill="#FF9999" d="M298.212,270.969c0,10.631-8.618,19.251-19.25,19.251c-10.633,0-19.251-8.618-19.251-19.251
			c0-10.631,8.618-19.25,19.251-19.25C289.594,251.719,298.212,260.337,298.212,270.969z"/>
	</g>
</g>
<g transform="matrix(1.6491887476862743, 0, 0, 1.6491887476862743, 730.1479876032776, 204.80092015103202)">
	<text transform="matrix(0.6064 0 0 0.6064 -60.3276 156.4299)" font-family="'Helvetica-Bold'" font-size="19.7916">Sports</text>
</g>
<g transform="matrix(1.6491887476862743, 0, 0, 1.6491887476862743, 201.02157122567252, 8.425020702063193)">
	<g>
		<path fill="none" stroke="#666666" stroke-width="1.5" stroke-linecap="square" stroke-miterlimit="10" d="M-38.049,265.765
			c0,5.43-4.402,9.832-9.831,9.832c-5.43,0-9.832-4.402-9.832-9.832c0-5.429,4.402-9.831,9.832-9.831
			C-42.451,255.934-38.049,260.336-38.049,265.765z"/>
	</g>
</g>
<g transform="matrix(1.6491887476862743, 0, 0, 1.6491887476862743, 201.02157122567252, 8.425020702063193)">
	<g>
		<path fill="#FF9999" d="M-38.049,265.765c0,5.43-4.402,9.832-9.831,9.832c-5.43,0-9.832-4.402-9.832-9.832
			c0-5.429,4.402-9.831,9.832-9.831C-42.451,255.934-38.049,260.336-38.049,265.765z"/>
	</g>
</g>
<g transform="matrix(1.6491887476862743, 0, 0, 1.6491887476862743, 186.84915582793334, 196.21956973194366)">
	<text transform="matrix(0.6064 0 0 0.6064 -60.3276 156.4301)" font-family="'Helvetica-Bold'" font-size="19.7916">Royalty</text>
</g>
<g transform="matrix(1.6491887476862743, 0, 0, 1.6491887476862743, 201.02157122567252, 8.425020702063193)">
	<g>
		<path fill="none" stroke="#666666" stroke-width="1.5" stroke-linecap="square" stroke-miterlimit="10" d="M-57.674,328.875
			c0,5.143-4.17,9.313-9.314,9.313s-9.314-4.17-9.314-9.313c0-5.146,4.17-9.314,9.314-9.314S-57.674,323.73-57.674,328.875z"/>
	</g>
</g>
<g transform="matrix(1.6491887476862743, 0, 0, 1.6491887476862743, 201.02157122567252, 8.425020702063193)">
	<g>
		<path fill="#FF9999" d="M-57.674,328.875c0,5.143-4.17,9.313-9.314,9.313s-9.314-4.17-9.314-9.313c0-5.146,4.17-9.314,9.314-9.314
			S-57.674,323.73-57.674,328.875z"/>
	</g>
</g>
<g transform="matrix(1.6491887476862743, 0, 0, 1.6491887476862743, 151.29711167001813, 300.29816141063003)">
	<text transform="matrix(0.6064 0 0 0.6064 -60.328 156.4298)" font-family="'Helvetica-Bold'" font-size="19.7916">Religion</text>
</g>
<g transform="matrix(1.6491887476862743, 0, 0, 1.6491887476862743, 201.02157122567252, 8.425020702063193)">
	<g>
		<path fill="none" stroke="#666666" stroke-width="1.5" stroke-linecap="square" stroke-miterlimit="10" d="M152.02,210.578
			c0,8.292-6.722,15.016-15.014,15.016c-8.292,0-15.014-6.723-15.014-15.016c0-8.292,6.722-15.013,15.014-15.013
			C145.298,195.565,152.02,202.286,152.02,210.578z"/>
	</g>
</g>
<g transform="matrix(1.6491887476862743, 0, 0, 1.6491887476862743, 201.02157122567252, 8.425020702063193)">
	<g>
		<path fill="#FF9999" d="M152.02,210.578c0,8.292-6.722,15.016-15.014,15.016c-8.292,0-15.014-6.723-15.014-15.016
			c0-8.292,6.722-15.013,15.014-15.013C145.298,195.565,152.02,202.286,152.02,210.578z"/>
	</g>
</g>
<g transform="matrix(1.6491887476862743, 0, 0, 1.6491887476862743, 492.51895378024074, 105.20601634202704)">
	<text transform="matrix(0.6064 0 0 0.6064 -60.3278 156.43)" font-family="'Helvetica-Bold'" font-size="19.7916">Politics</text>
</g>
<g transform="matrix(1.6491887476862743, 0, 0, 1.6491887476862743, 201.02157122567252, 8.425020702063193)">
	<g>
		<path fill="none" stroke="#666666" stroke-width="1.5" stroke-linecap="square" stroke-miterlimit="10" d="M46.223,258.047
			c0,7.789-6.314,14.104-14.103,14.104c-7.788,0-14.103-6.315-14.103-14.104c0-7.789,6.314-14.103,14.103-14.103
			C39.908,243.944,46.223,250.258,46.223,258.047z"/>
	</g>
</g>
<g transform="matrix(1.6491887476862743, 0, 0, 1.6491887476862743, 201.02157122567252, 8.425020702063193)">
	<g>
		<path fill="#FF9999" d="M46.223,258.047c0,7.789-6.314,14.104-14.103,14.104c-7.788,0-14.103-6.315-14.103-14.104
			c0-7.789,6.314-14.103,14.103-14.103C39.908,243.944,46.223,250.258,46.223,258.047z"/>
	</g>
</g>
<g transform="matrix(1.6491887476862743, 0, 0, 1.6491887476862743, 316.84192577198763, 183.49008282041441)">
	<text transform="matrix(0.6064 0 0 0.6064 -60.3279 156.4301)" font-family="'Helvetica-Bold'" font-size="19.7916">Warfare</text>
</g>
<g transform="matrix(1.6491887476862743, 0, 0, 1.6491887476862743, 201.02157122567252, 8.425020702063193)">
	<g>
		<path fill="none" stroke="#666666" stroke-width="1.5" stroke-linecap="square" stroke-miterlimit="10" d="M263.045,342.179
			c0,10.055-8.15,18.206-18.205,18.206c-10.056,0-18.206-8.15-18.206-18.206s8.15-18.206,18.206-18.206
			C254.893,323.973,263.045,332.123,263.045,342.179z"/>
	</g>
</g>
<g transform="matrix(1.6491887476862743, 0, 0, 1.6491887476862743, 201.02157122567252, 8.425020702063193)">
	<g>
		<path fill="#FF9999" d="M263.045,342.179c0,10.055-8.15,18.206-18.205,18.206c-10.056,0-18.206-8.15-18.206-18.206
			s8.15-18.206,18.206-18.206C254.893,323.973,263.045,332.125,263.045,342.179z"/>
	</g>
</g>
<g transform="matrix(1.6491887476862743, 0, 0, 1.6491887476862743, 676.6626947664798, 322.2400519978658)">
	<text transform="matrix(0.6064 0 0 0.6064 -60.3271 156.4301)" font-family="'Helvetica-Bold'" font-size="19.7916">Music</text>
</g>
<g transform="matrix(1.6491887476862743, 0, 0, 1.6491887476862743, 201.02157122567252, 8.425020702063193)">
	<g>
		<path fill="none" stroke="#666666" stroke-width="1.5" stroke-linecap="square" stroke-miterlimit="10" d="M89.165,316.583
			c0,5.14-4.167,9.307-9.307,9.307c-5.14,0-9.306-4.168-9.306-9.307c0-5.139,4.166-9.306,9.306-9.306
			C84.998,307.277,89.165,311.443,89.165,316.583z"/>
	</g>
</g>
<g transform="matrix(1.6491887476862743, 0, 0, 1.6491887476862743, 201.02157122567252, 8.425020702063193)">
	<g>
		<path fill="#FF9999" d="M89.165,316.583c0,5.14-4.167,9.307-9.307,9.307c-5.14,0-9.306-4.168-9.306-9.307
			c0-5.139,4.166-9.306,9.306-9.306C84.998,307.277,89.165,311.443,89.165,316.583z"/>
	</g>
</g>
<g transform="matrix(1.6491887476862743, 0, 0, 1.6491887476862743, 391.59593036012393, 280.0274031225329)">
	<text transform="matrix(0.6064 0 0 0.6064 -60.328 156.4299)" font-family="'Helvetica-Bold'" font-size="19.7916">Personal</text>
</g>
<g transform="matrix(1.6491887476862743, 0, 0, 1.6491887476862743, 201.02157122567252, 8.425020702063193)">
	<g>
		<path fill="none" stroke="#666666" stroke-width="1.5" stroke-linecap="square" stroke-miterlimit="10" d="M165.836,417.227
			c0,5.108-4.141,9.249-9.25,9.249c-5.108,0-9.25-4.14-9.25-9.249s4.141-9.251,9.25-9.251S165.836,412.119,165.836,417.227z"/>
	</g>
</g>
<g transform="matrix(1.6491887476862743, 0, 0, 1.6491887476862743, 201.02157122567252, 8.425020702063193)">
	<g>
		<path fill="#FF9999" d="M165.836,417.227c0,5.108-4.141,9.249-9.25,9.249c-5.108,0-9.25-4.14-9.25-9.249s4.141-9.251,9.25-9.251
			S165.836,412.119,165.836,417.227z"/>
	</g>
</g>
<g transform="matrix(1.6491887476862743, 0, 0, 1.6491887476862743, 503.8627884608096, 446.00757071105966)">
	<text transform="matrix(0.6064 0 0 0.6064 -60.3285 156.4301)" font-family="'Helvetica-Bold'" font-size="19.7916">Exploration</text>
</g>
<g transform="matrix(1.6491887476862743, 0, 0, 1.6491887476862743, 201.02157122567252, 8.425020702063193)">
	<g>
		<path fill="none" stroke="#666666" stroke-width="1.5" stroke-linecap="square" stroke-miterlimit="10" d="M275.46,476.543
			c0,5.109-4.141,9.251-9.249,9.251c-5.109,0-9.251-4.141-9.251-9.251c0-5.108,4.14-9.251,9.251-9.251
			C271.318,467.294,275.46,471.436,275.46,476.543z"/>
	</g>
</g>
<g transform="matrix(1.6491887476862743, 0, 0, 1.6491887476862743, 201.02157122567252, 8.425020702063193)">
	<g>
		<path fill="#FF9999" d="M275.46,476.543c0,5.109-4.141,9.251-9.249,9.251c-5.109,0-9.251-4.141-9.251-9.251
			c0-5.108,4.14-9.251,9.251-9.251C271.318,467.294,275.46,471.436,275.46,476.543z"/>
	</g>
</g>
<g transform="matrix(1.6491887476862743, 0, 0, 1.6491887476862743, 698.0644518808102, 543.8329799998945)">
	<text transform="matrix(0.6064 0 0 0.6064 -60.3279 156.43)" font-family="'Helvetica-Bold'" font-size="19.7916">Business</text>
</g>
<g transform="matrix(1.6491887476862743, 0, 0, 1.6491887476862743, 201.02157122567252, 8.425020702063193)">
	<g>
		<path fill="none" stroke="#666666" stroke-width="1.5" stroke-linecap="square" stroke-miterlimit="10" d="M64.767,378.523
			c0,6.78-5.497,12.278-12.278,12.278s-12.278-5.497-12.278-12.278c0-6.781,5.497-12.279,12.278-12.279
			C59.269,366.244,64.767,371.742,64.767,378.523z"/>
	</g>
</g>
<g transform="matrix(1.6491887476862743, 0, 0, 1.6491887476862743, 201.02157122567252, 8.425020702063193)">
	<g>
		<path fill="#FF9999" d="M64.767,378.523c0,6.78-5.497,12.278-12.278,12.278s-12.278-5.497-12.278-12.278
			c0-6.781,5.497-12.279,12.278-12.279C59.269,366.244,64.767,371.742,64.767,378.523z"/>
	</g>
</g>
<g transform="matrix(1.6491887476862743, 0, 0, 1.6491887476862743, 372.49988184880215, 382.17752906497986)">
	<text transform="matrix(0.6064 0 0 0.6064 -60.3282 156.4301)" font-family="'Helvetica-Bold'" font-size="19.7916">Art</text>
</g>
<g transform="matrix(1.6491887476862743, 0, 0, 1.6491887476862743, 201.02157122567252, 8.425020702063193)">
	<g>
		<path fill="none" stroke="#666666" stroke-width="1.5" stroke-linecap="square" stroke-miterlimit="10" d="M208.988,378.364
			c0,6.054-4.908,10.962-10.962,10.962c-6.054,0-10.962-4.908-10.962-10.962c0-6.054,4.908-10.962,10.962-10.962
			C204.08,367.402,208.988,372.31,208.988,378.364z"/>
	</g>
</g>
<g transform="matrix(1.6491887476862743, 0, 0, 1.6491887476862743, 201.02157122567252, 8.425020702063193)">
	<g>
		<path fill="#FF9999" d="M208.988,378.364c0,6.054-4.908,10.962-10.962,10.962c-6.054,0-10.962-4.908-10.962-10.962
			s4.908-10.962,10.962-10.962C204.08,367.402,208.988,372.31,208.988,378.364z"/>
	</g>
</g>
<g transform="matrix(1.6491887476862743, 0, 0, 1.6491887476862743, 591.6026948888283, 381.9166977452507)">
	<text transform="matrix(0.6064 0 0 0.6064 -60.3281 156.4301)" font-family="'Helvetica-Bold'" font-size="19.7916">Science</text>
</g>
<g transform="matrix(1.6491887476862743, 0, 0, 1.6491887476862743, 201.02157122567252, 8.425020702063193)">
	<g>
		<path fill="none" stroke="#666666" stroke-width="1.5" stroke-linecap="square" stroke-miterlimit="10" d="M-14.728,444.595
			c0,5.108-4.141,9.249-9.25,9.249c-5.109,0-9.25-4.14-9.25-9.249c0-5.109,4.141-9.251,9.25-9.251
			C-18.87,435.344-14.728,439.486-14.728,444.595z"/>
	</g>
</g>
<g transform="matrix(1.6491887476862743, 0, 0, 1.6491887476862743, 201.02157122567252, 8.425020702063193)">
	<g>
		<path fill="#FF9999" d="M-14.728,444.595c0,5.108-4.141,9.249-9.25,9.249c-5.109,0-9.25-4.14-9.25-9.249s4.141-9.251,9.25-9.251
			C-18.87,435.344-14.728,439.486-14.728,444.595z"/>
	</g>
</g>
<g transform="matrix(1.6491887476862743, 0, 0, 1.6491887476862743, 206.73383374814273, 491.1420336598233)">
	<text transform="matrix(0.6064 0 0 0.6064 -60.3282 156.4297)" font-family="'Helvetica-Bold'" font-size="19.7916">Humanities</text>
</g>
<g transform="matrix(1.6491887476862743, 0, 0, 1.6491887476862743, 201.02157122567252, 8.425020702063193)">
	<g>
		<path fill="none" stroke="#666666" stroke-width="1.5" stroke-linecap="square" stroke-miterlimit="10" d="M17.198,506.35
			c0,5.109-4.141,9.249-9.25,9.249c-5.108,0-9.25-4.14-9.25-9.249c0-5.108,4.141-9.251,9.25-9.251
			C13.057,497.099,17.198,501.241,17.198,506.35z"/>
	</g>
</g>
<g transform="matrix(1.6491887476862743, 0, 0, 1.6491887476862743, 201.02157122567252, 8.425020702063193)">
	<g>
		<path fill="#FF9999" d="M17.198,506.35c0,5.109-4.141,9.249-9.25,9.249c-5.108,0-9.25-4.14-9.25-9.249
			c0-5.108,4.141-9.251,9.25-9.251C13.057,497.099,17.198,501.241,17.198,506.35z"/>
	</g>
</g>
<g transform="matrix(1.6491887476862743, 0, 0, 1.6491887476862743, 267.3537942705914, 592.9874411796363)">
	<text transform="matrix(0.6064 0 0 0.6064 -60.3281 156.4299)" font-family="'Helvetica-Bold'" font-size="19.7916">Literature</text>
</g>
<g>
	<g transform="matrix(1.6491887476862743, 0, 0, 1.6491887476862743, 201.02157122567252, 8.425020702063193)">
		<g>
			
				<path fill="none" stroke="#000000" stroke-width="2.0792" stroke-linecap="round" stroke-linejoin="round" stroke-miterlimit="10" d="
				M-145.647,264.044l11.171-23.312"/>
		</g>
	</g>
	<g transform="matrix(1.6491887476862743, 0, 0, 1.6491887476862743, 201.02157122567252, 8.425020702063193)">
		<g>
			
				<path fill="none" stroke="#5F5F5F" stroke-width="1.2763" stroke-linecap="round" stroke-linejoin="round" stroke-miterlimit="10" d="
				M-197.794,264.044l11.171-23.312"/>
		</g>
	</g>
	<g transform="matrix(1.6491887476862743, 0, 0, 1.6491887476862743, 201.02157122567252, 8.425020702063193)">
		<g>
			
				<path fill="none" stroke="#C4C4C4" stroke-width="0.4632" stroke-linecap="round" stroke-linejoin="round" stroke-miterlimit="10" d="
				M-247.212,264.044l11.171-23.312"/>
		</g>
	</g>
	<text transform="matrix(1 0 0 1 -222.9878 465.8146)" font-family="'Helvetica'" font-size="18">5.5%</text>
	<text transform="matrix(1 0 0 1 -137.5562 465.8146)" font-family="'Helvetica'" font-size="18">6.5%</text>
	<text transform="matrix(1 0 0 1 -57.4878 465.8146)" font-family="'Helvetica'" font-size="18">&gt;7.5%</text>
</g>
<text transform="matrix(1 0 0 1 -222.9878 494.4816)" font-family="'Helvetica'" font-size="18">Average share of topic (target)</text>
<text transform="matrix(1 0 0 1 -222.9878 516.0832)" font-family="'Helvetica'" font-size="18">in category (source)</text>
<g>
	<path fill="#FF9999" d="M-19.045,599.753c0,17.533-14.214,31.746-31.747,31.746s-31.747-14.213-31.747-31.746
		c0-17.535,14.214-31.748,31.747-31.748S-19.045,582.218-19.045,599.753z"/>
</g>
<text transform="matrix(1 0 0 1 -74.0611 607.1525)" font-family="'Helvetica'" font-size="18">&gt;10%</text>
<g transform="matrix(1.6491887476862743, 0, 0, 1.6491887476862743, 201.02157122567252, 8.425020702063193)">
	<g>
		<path fill="#FF9999" d="M-187.809,358.557c0,7.788-6.314,14.103-14.103,14.103c-7.788,0-14.103-6.315-14.103-14.103
			c0-7.788,6.314-14.104,14.103-14.104C-194.123,344.453-187.809,350.769-187.809,358.557z"/>
	</g>
</g>
<text transform="matrix(1 0 0 1 -144.9766 606.1525)" font-family="'Helvetica'" font-size="18">5%</text>
<g transform="matrix(1.6491887476862743, 0, 0, 1.6491887476862743, 201.02157122567252, 8.425020702063193)">
	<g>
		<path fill="#FF9999" d="M-234.352,358.557c0,5.109-4.141,9.249-9.25,9.249s-9.251-4.14-9.251-9.249c0-5.109,4.141-9.25,9.251-9.25
			C-238.493,349.306-234.352,353.448-234.352,358.557z"/>
	</g>
</g>
<text transform="matrix(1 0 0 1 -218.9878 606.1516)" font-family="'Helvetica'" font-size="18">&lt;1%</text>
<text transform="matrix(1 0 0 1 -218.9878 661.4816)" font-family="'Helvetica'" font-size="18">Share of category of all</text>
<text transform="matrix(1 0 0 1 -218.9878 683.0832)" font-family="'Helvetica'" font-size="18">articles in a language edition</text>
<g transform="matrix(1.6491887476862743, 0, 0, 1.6491887476862743, 151.29711167001813, 300.29816141063003)">
	<text transform="matrix(0.6064 0 0 0.6064 -216.4521 294.994)" font-family="'Helvetica-Bold'" font-size="32.0022">Network of topics</text>
	<text transform="matrix(0.6064 0 0 0.6064 -216.4521 318.2802)" font-family="'Helvetica-Bold'" font-size="32.0022">Englis</text>
	<text transform="matrix(0.6064 0 0 0.6064 -158.2281 318.2802)" font-family="'Helvetica-Bold'" font-size="32.0022">h</text>
	<text transform="matrix(0.6064 0 0 0.6064 -145.9866 318.2802)" font-family="'Helvetica-Bold'" font-size="32.0022"> Wikipedia</text>
</g>
</svg>
