<?xml version="1.0" encoding="utf-8"?>
<!-- Generator: Adobe Illustrator 16.0.4, SVG Export Plug-In . SVG Version: 6.00 Build 0)  -->
<!DOCTYPE svg PUBLIC "-//W3C//DTD SVG 1.1//EN" "http://www.w3.org/Graphics/SVG/1.1/DTD/svg11.dtd">
<svg version="1.1" id="Layer_1" xmlns:ev="http://www.w3.org/2001/xml-events"
	 xmlns="http://www.w3.org/2000/svg" xmlns:xlink="http://www.w3.org/1999/xlink" x="0px" y="0px" width="956.066px"
	 height="622.074px" viewBox="0 0 956.066 622.074" enable-background="new 0 0 956.066 622.074" xml:space="preserve">
<title></title>
<desc>
	Creator: FreeHEP Graphics2D Driver Producer: org.freehep.graphicsio.svg.SVGGraphics2D Revision: 12753  Source:  Date: Monday, June 3, 2013 5:06:22 AM CEST
	</desc>
<g>
	
		<path fill="none" stroke="#FAFAFA" stroke-width="0.0404" stroke-linecap="round" stroke-linejoin="round" stroke-miterlimit="10" d="
		M738.612,222.273c-17.688,50.665-61.197,114.797-97.185,143.241"/>
</g>
<g>
	<path fill="#FAFAFA" d="M738.637,222.282c0.005-0.014-0.002-0.028-0.016-0.033s-0.028,0.002-0.033,0.016L738.637,222.282z"/>
</g>
<g>
	<path fill="#FAFAFA" d="M643.425,368.039c-4.698,0.979-8.729,2.798-12.097,5.459c3.366-2.661,6.068-6.164,8.104-10.509
		L643.425,368.039z"/>
</g>
<g>
	
		<path fill="none" stroke="#DDDDDD" stroke-width="0.2661" stroke-linecap="round" stroke-linejoin="round" stroke-miterlimit="10" d="
		M729.254,211.408l-77.07,14.59"/>
</g>
<g>
	<path fill="#DDDDDD" d="M729.285,211.575c0.092-0.018,0.151-0.106,0.136-0.199c-0.018-0.092-0.106-0.153-0.199-0.135
		L729.285,211.575z"/>
</g>
<g>
	<path fill="#DDDDDD" d="M652.81,229.302c-4.821-1.369-9.437-1.636-13.842-0.802c4.405-0.834,8.604-2.77,12.591-5.806
		L652.81,229.302z"/>
</g>
<g>
	
		<path fill="none" stroke="#A7A7A7" stroke-width="0.6839" stroke-linecap="round" stroke-linejoin="round" stroke-miterlimit="10" d="
		M636.599,223.058c23.552-17.318,58.855-27.046,78.854-21.729"/>
</g>
<g>
	<path fill="#A7A7A7" d="M636.34,222.706c-0.193,0.143-0.236,0.417-0.094,0.611c0.144,0.194,0.417,0.236,0.611,0.093L636.34,222.706
		z"/>
</g>
<g>
	<path fill="#A7A7A7" d="M716.386,197.821c4.057,3.582,8.422,5.995,13.1,7.238c-4.678-1.244-9.665-1.318-14.964-0.223
		L716.386,197.821z"/>
</g>
<g>
	<path d="M488.28,346.518l194.959-87.22"/>
</g>
<g>
	<path fill="#ECECEC" d="M488.242,346.434c-0.047,0.021-0.066,0.074-0.047,0.121c0.021,0.047,0.076,0.067,0.123,0.047
		L488.242,346.434z"/>
</g>
<g>
	<path fill="#ECECEC" d="M681.898,256.299c4.893,0.21,9.338-0.579,13.336-2.368c-3.998,1.789-7.55,4.577-10.653,8.365
		L681.898,256.299z"/>
</g>
<g>
	
		<path fill="none" stroke="#4E4E4E" stroke-width="1.382" stroke-linecap="round" stroke-linejoin="round" stroke-miterlimit="10" d="
		M594.214,22.558c43.663,52.062,91.272,139.597,106.337,195.514"/>
</g>
<g>
	<path fill="#4E4E4E" d="M594.89,21.99c-0.312-0.374-0.87-0.422-1.242-0.109c-0.374,0.313-0.424,0.87-0.109,1.243L594.89,21.99z"/>
</g>
<g>
	<path fill="#4E4E4E" d="M704.486,217.012c-1.21,5.954-1.108,11.554,0.306,16.801c-1.414-5.247-4.139-10.141-8.176-14.681
		L704.486,217.012z"/>
</g>
<g>
	
		<path fill="none" stroke="#FEFEFE" stroke-width="0.0099" stroke-linecap="round" stroke-linejoin="round" stroke-miterlimit="10" d="
		M597.218,18.889c89.239,48.69,200.757,148.152,249.082,222.155"/>
</g>
<g>
	<path fill="#FEFEFE" d="M597.221,18.883c-0.003-0.001-0.007,0-0.009,0.002c-0.001,0.003,0,0.007,0.003,0.009L597.221,18.883z"/>
</g>
<g>
	<path fill="#FEFEFE" d="M848.979,239.295c0.548,4.737,1.986,8.892,4.318,12.464c-2.332-3.572-5.558-6.56-9.676-8.966
		L848.979,239.295z"/>
</g>
<g>
	
		<path fill="none" stroke="#929292" stroke-width="0.8525" stroke-linecap="round" stroke-linejoin="round" stroke-miterlimit="10" d="
		M805.189,393.4l-6.64,53.975"/>
</g>
<g>
	<path fill="#929292" d="M805.73,393.467c0.035-0.299-0.177-0.57-0.476-0.607c-0.298-0.035-0.57,0.177-0.605,0.476L805.73,393.467z"
		/>
</g>
<g>
	<path fill="#929292" d="M802.261,447.831c-3.081,4.642-4.927,9.436-5.534,14.382c0.607-4.946-0.021-10.044-1.885-15.294
		L802.261,447.831z"/>
</g>
<g>
	
		<path fill="none" stroke="#101010" stroke-width="1.8642" stroke-linecap="round" stroke-linejoin="round" stroke-miterlimit="10" d="
		M516.157,202.806c40.662,38.599,82.954,105.019,94.461,148.354"/>
</g>
<g>
	<path fill="#101010" d="M516.977,201.942c-0.477-0.453-1.229-0.433-1.683,0.044c-0.452,0.477-0.433,1.23,0.044,1.683
		L516.977,201.942z"/>
</g>
<g>
	<path fill="#101010" d="M614.855,350.034c-1.325,6.397-1.237,12.423,0.263,18.071c-1.5-5.648-4.412-10.924-8.736-15.821
		L614.855,350.034z"/>
</g>
<g>
	
		<path fill="none" stroke="#000000" stroke-width="2.25" stroke-linecap="round" stroke-linejoin="round" stroke-miterlimit="10" d="
		M519.597,192.678c30.214-3.176,66.911,4.689,81.966,17.568"/>
</g>
<g>
	<path d="M519.446,191.249c-0.789,0.083-1.362,0.79-1.279,1.579s0.79,1.361,1.579,1.278L519.446,191.249z"/>
</g>
<g>
	<path d="M604.571,206.728c2.685,6.358,6.372,11.544,11.062,15.557c-4.689-4.013-10.385-6.854-17.082-8.521L604.571,206.728z"/>
</g>
<g>
	
		<path fill="none" stroke="#747474" stroke-width="1.0841" stroke-linecap="round" stroke-linejoin="round" stroke-miterlimit="10" d="
		M651.332,320.833L528.17,212.693"/>
</g>
<g>
	<path fill="#747474" d="M650.875,321.354c0.287,0.252,0.725,0.225,0.979-0.062c0.252-0.288,0.224-0.727-0.063-0.979
		L650.875,321.354z"/>
</g>
<g>
	<path fill="#747474" d="M525.606,215.613c-2.185-5.364-5.223-9.755-9.114-13.173c3.893,3.418,8.64,5.863,14.241,7.334
		L525.606,215.613z"/>
</g>
<g>
	
		<path fill="none" stroke="#313131" stroke-width="1.6035" stroke-linecap="round" stroke-linejoin="round" stroke-miterlimit="10" d="
		M489.172,349.366c36.12-6.81,82.481-0.126,103.551,14.929"/>
</g>
<g>
	<path fill="#313131" d="M488.982,348.359c-0.556,0.104-0.922,0.641-0.816,1.195c0.105,0.557,0.641,0.922,1.196,0.817
		L488.982,348.359z"/>
</g>
<g>
	<path fill="#313131" d="M595.174,360.863c2.94,5.557,6.698,9.969,11.273,13.238c-4.575-3.271-9.967-5.396-16.176-6.375
		L595.174,360.863z"/>
</g>
<g>
	
		<path fill="none" stroke="#101010" stroke-width="1.8592" stroke-linecap="round" stroke-linejoin="round" stroke-miterlimit="10" d="
		M631.287,577.34c-19.213-48.938-27.766-121.395-19.104-161.832"/>
</g>
<g>
	<path fill="#101010" d="M630.182,577.773c0.239,0.609,0.93,0.91,1.539,0.672c0.61-0.24,0.911-0.93,0.671-1.539L630.182,577.773z"/>
</g>
<g>
	<path fill="#101010" d="M607.9,414.591c4.078-5.1,6.729-10.505,7.953-16.215c-1.225,5.71-1.021,11.727,0.612,18.05L607.9,414.591z"
		/>
</g>
<g>
	
		<path fill="none" stroke="#1A1A1A" stroke-width="1.786" stroke-linecap="round" stroke-linejoin="round" stroke-miterlimit="10" d="
		M649.737,323.107c-11.186-6.148-25.961-1.08-17.4-16.152"/>
</g>
<g>
	<path fill="#1A1A1A" d="M649.188,324.107c0.553,0.303,1.246,0.102,1.55-0.451c0.304-0.551,0.103-1.244-0.45-1.549L649.188,324.107z
		"/>
</g>
<g>
	<path fill="#1A1A1A" d="M628.568,304.814c5.364-3.597,9.475-7.908,12.328-12.932c-2.854,5.024-4.45,10.762-4.793,17.213
		L628.568,304.814z"/>
</g>
<g>
	
		<path fill="none" stroke="#000000" stroke-width="2.2274" stroke-linecap="round" stroke-linejoin="round" stroke-miterlimit="10" d="
		M648.078,475.421l-18.772-59.801"/>
</g>
<g>
	<path d="M646.721,475.848c0.235,0.749,1.033,1.166,1.783,0.932c0.749-0.235,1.166-1.033,0.932-1.783L646.721,475.848z"/>
</g>
<g>
	<path d="M624.902,417.002c1.093-6.792,0.718-13.124-1.126-18.996c1.844,5.872,5.153,11.282,9.933,16.232L624.902,417.002z"/>
</g>
<g>
	
		<path fill="none" stroke="#ACACAC" stroke-width="0.6463" stroke-linecap="round" stroke-linejoin="round" stroke-miterlimit="10" d="
		M656.631,317.232l-21.461-60.05"/>
</g>
<g>
	<path fill="#ACACAC" d="M656.242,317.372c0.077,0.214,0.312,0.326,0.527,0.249c0.215-0.076,0.326-0.312,0.25-0.527L656.242,317.372
		z"/>
</g>
<g>
	<path fill="#ACACAC" d="M631.774,258.396c0.646-5.336,0.159-10.268-1.458-14.795c1.617,4.527,4.366,8.65,8.249,12.368
		L631.774,258.396z"/>
</g>
<g>
	<path fill="none" stroke="#666666" stroke-width="1.5" stroke-linecap="square" stroke-miterlimit="10" d="M884.86,415.403
		c0,13.578-11.007,24.586-24.587,24.586c-13.577,0-24.584-11.008-24.584-24.586s11.007-24.585,24.584-24.585
		C873.854,390.818,884.86,401.825,884.86,415.403z"/>
</g>
<g>
	<path fill="#9ABCB0" d="M884.86,415.403c0,13.578-11.007,24.586-24.587,24.586c-13.577,0-24.584-11.008-24.584-24.586
		s11.007-24.585,24.584-24.585C873.854,390.818,884.86,401.825,884.86,415.403z"/>
</g>
<text transform="matrix(1 0 0 1 836.71 421.1963)" font-family="'Helvetica-Bold'" font-size="15.3261">Sports</text>
<g>
	<path fill="none" stroke="#666666" stroke-width="1.5" stroke-linecap="square" stroke-miterlimit="10" d="M756.711,208.742
		c0,7.387-5.988,13.375-13.375,13.375s-13.375-5.988-13.375-13.375c0-7.387,5.988-13.375,13.375-13.375
		S756.711,201.355,756.711,208.742z"/>
</g>
<g>
	<path fill="#9ABCB0" d="M756.711,208.742c0,7.387-5.988,13.375-13.375,13.375s-13.375-5.988-13.375-13.375
		c0-7.387,5.988-13.375,13.375-13.375S756.711,201.355,756.711,208.742z"/>
</g>
<text transform="matrix(1 0 0 1 713.3359 214.5352)" font-family="'Helvetica-Bold'" font-size="15.3261">Religion</text>
<g>
	<path fill="none" stroke="#666666" stroke-width="1.5" stroke-linecap="square" stroke-miterlimit="10" d="M722.286,247.951
		c0,7.559-6.127,13.686-13.686,13.686s-13.686-6.127-13.686-13.686c0-7.558,6.127-13.685,13.686-13.685
		S722.286,240.393,722.286,247.951z"/>
</g>
<g>
	<path fill="#9ABCB0" d="M722.286,247.951c0,7.559-6.127,13.686-13.686,13.686s-13.686-6.127-13.686-13.686
		c0-7.558,6.127-13.685,13.686-13.685S722.286,240.393,722.286,247.951z"/>
</g>
<text transform="matrix(1 0 0 1 697.3135 253.7441)" font-family="'Helvetica-Bold'" font-size="15.3261">Art</text>
<g>
	<path fill="none" stroke="#666666" stroke-width="1.5" stroke-linecap="square" stroke-miterlimit="10" d="M889.474,271.86
		c0,12.73-10.319,23.05-23.05,23.05c-12.729,0-23.051-10.32-23.051-23.05s10.32-23.05,23.051-23.05
		C879.153,248.811,889.474,259.13,889.474,271.86z"/>
</g>
<g>
	<path fill="#9ABCB0" d="M889.474,271.86c0,12.73-10.319,23.05-23.05,23.05c-12.729,0-23.051-10.32-23.051-23.05
		s10.32-23.05,23.051-23.05C879.153,248.811,889.474,259.13,889.474,271.86z"/>
</g>
<text transform="matrix(1 0 0 1 844.2842 277.6533)" font-family="'Helvetica-Bold'" font-size="15.3261">Media</text>
<g>
	<path fill="none" stroke="#666666" stroke-width="1.5" stroke-linecap="square" stroke-miterlimit="10" d="M809.998,478.3
		c0,8.422-6.828,15.25-15.25,15.25c-8.423,0-15.251-6.828-15.251-15.25c0-8.423,6.828-15.25,15.251-15.25
		C803.17,463.05,809.998,469.877,809.998,478.3z"/>
</g>
<g>
	<path fill="#9ABCB0" d="M809.998,478.3c0,8.422-6.828,15.25-15.25,15.25c-8.423,0-15.251-6.828-15.251-15.25
		c0-8.423,6.828-15.25,15.251-15.25C803.17,463.05,809.998,469.877,809.998,478.3z"/>
</g>
<text transform="matrix(1 0 0 1 767.876 484.0928)" font-family="'Helvetica-Bold'" font-size="15.3261">Royalty</text>
<g>
	<path fill="none" stroke="#666666" stroke-width="1.5" stroke-linecap="square" stroke-miterlimit="10" d="M874.236,229.497
		c0,11.007-8.924,19.931-19.932,19.931c-11.007,0-19.931-8.923-19.931-19.931c0-11.007,8.924-19.93,19.931-19.93
		C865.312,209.567,874.236,218.49,874.236,229.497z"/>
</g>
<g>
	<path fill="#9ABCB0" d="M874.236,229.497c0,11.007-8.924,19.931-19.932,19.931c-11.007,0-19.931-8.923-19.931-19.931
		c0-11.007,8.924-19.93,19.931-19.93C865.312,209.567,874.236,218.49,874.236,229.497z"/>
</g>
<text transform="matrix(1 0 0 1 832.9043 235.29)" font-family="'Helvetica-Bold'" font-size="15.3261">Music</text>
<g>
	<path fill="none" stroke="#666666" stroke-width="1.5" stroke-linecap="square" stroke-miterlimit="10" d="M818.562,380.725
		c0,6.523-5.289,11.813-11.813,11.813s-11.814-5.29-11.814-11.813c0-6.524,5.29-11.813,11.814-11.813
		S818.562,374.199,818.562,380.725z"/>
</g>
<g>
	<path fill="#9ABCB0" d="M818.562,380.725c0,6.523-5.289,11.813-11.813,11.813s-11.814-5.29-11.814-11.813
		c0-6.524,5.29-11.813,11.814-11.813S818.562,374.199,818.562,380.725z"/>
</g>
<text transform="matrix(1 0 0 1 764.2402 386.5176)" font-family="'Helvetica-Bold'" font-size="15.3261">Exploration</text>
<g>
	<path fill="none" stroke="#666666" stroke-width="1.5" stroke-linecap="square" stroke-miterlimit="10" d="M518.708,194.013
		c0,6.525-5.289,11.814-11.813,11.814c-6.523,0-11.813-5.289-11.813-11.814c0-6.524,5.29-11.813,11.813-11.813
		C513.419,182.2,518.708,187.488,518.708,194.013z"/>
</g>
<g>
	<path fill="#9ABCB0" d="M518.708,194.013c0,6.525-5.289,11.814-11.813,11.814c-6.523,0-11.813-5.289-11.813-11.814
		c0-6.524,5.29-11.813,11.813-11.813C513.419,182.2,518.708,187.488,518.708,194.013z"/>
</g>
<text transform="matrix(1 0 0 1 470.4619 199.8057)" font-family="'Helvetica-Bold'" font-size="15.3261">Education</text>
<g>
	<path fill="none" stroke="#666666" stroke-width="1.5" stroke-linecap="square" stroke-miterlimit="10" d="M488.436,351.732
		c0,6.523-5.289,11.813-11.812,11.813c-6.524,0-11.812-5.29-11.812-11.813c0-6.524,5.288-11.814,11.812-11.814
		C483.146,339.918,488.436,345.208,488.436,351.732z"/>
</g>
<g>
	<path fill="#9ABCB0" d="M488.436,351.732c0,6.523-5.289,11.813-11.812,11.813c-6.524,0-11.812-5.29-11.812-11.813
		c0-6.524,5.288-11.814,11.812-11.814C483.146,339.918,488.436,345.208,488.436,351.732z"/>
</g>
<text transform="matrix(1 0 0 1 444.5 357.5254)" font-family="'Helvetica-Bold'" font-size="15.3261">Business</text>
<g>
	<path fill="none" stroke="#666666" stroke-width="1.5" stroke-linecap="square" stroke-miterlimit="10" d="M647.768,589.229
		c0,6.524-5.289,11.813-11.812,11.813c-6.524,0-11.814-5.289-11.814-11.813c0-6.523,5.29-11.813,11.814-11.813
		S647.768,582.704,647.768,589.229z"/>
</g>
<g>
	<path fill="#9ABCB0" d="M647.768,589.229c0,6.524-5.289,11.813-11.812,11.813c-6.524,0-11.814-5.289-11.814-11.813
		c0-6.523,5.29-11.813,11.814-11.813S647.768,582.704,647.768,589.229z"/>
</g>
<text transform="matrix(1 0 0 1 607.5771 595.0215)" font-family="'Helvetica-Bold'" font-size="15.3261">Warfare</text>
<g>
	<path fill="none" stroke="#666666" stroke-width="1.5" stroke-linecap="square" stroke-miterlimit="10" d="M659.021,280.775
		c0,6.526-5.291,11.816-11.816,11.816s-11.816-5.29-11.816-11.816s5.291-11.816,11.816-11.816S659.021,274.249,659.021,280.775z"/>
</g>
<g>
	<path fill="#9ABCB0" d="M659.021,280.775c0,6.526-5.291,11.816-11.816,11.816s-11.816-5.29-11.816-11.816
		s5.291-11.816,11.816-11.816S659.021,274.249,659.021,280.775z"/>
</g>
<text transform="matrix(1 0 0 1 619.7197 286.5684)" font-family="'Helvetica-Bold'" font-size="15.3261">Science</text>
<g>
	<path fill="none" stroke="#666666" stroke-width="1.5" stroke-linecap="square" stroke-miterlimit="10" d="M633.725,383.152
		c0,8.068-6.541,14.609-14.609,14.609c-8.069,0-14.611-6.541-14.611-14.609c0-8.069,6.542-14.611,14.611-14.611
		C627.184,368.541,633.725,375.083,633.725,383.152z"/>
</g>
<g>
	<path fill="#9ABCB0" d="M633.725,383.152c0,8.068-6.541,14.609-14.609,14.609c-8.069,0-14.611-6.541-14.611-14.609
		c0-8.069,6.542-14.611,14.611-14.611C627.184,368.541,633.725,375.083,633.725,383.152z"/>
</g>
<text transform="matrix(1 0 0 1 592.8291 388.9453)" font-family="'Helvetica-Bold'" font-size="15.3261">Politics</text>
<g>
	<path fill="none" stroke="#666666" stroke-width="1.5" stroke-linecap="square" stroke-miterlimit="10" d="M638.243,230.991
		c0,6.867-5.566,12.434-12.435,12.434c-6.867,0-12.434-5.567-12.434-12.434c0-6.867,5.566-12.434,12.434-12.434
		C632.677,218.557,638.243,224.124,638.243,230.991z"/>
</g>
<g>
	<path fill="#9ABCB0" d="M638.243,230.991c0,6.867-5.566,12.434-12.435,12.434c-6.867,0-12.434-5.567-12.434-12.434
		c0-6.867,5.566-12.434,12.434-12.434C632.677,218.557,638.243,224.124,638.243,230.991z"/>
</g>
<text transform="matrix(1 0 0 1 583.8096 236.7842)" font-family="'Helvetica-Bold'" font-size="15.3261">Humanities</text>
<g>
	<path fill="none" stroke="#666666" stroke-width="1.5" stroke-linecap="square" stroke-miterlimit="10" d="M597.82,12.771
		c0,6.525-5.289,11.814-11.814,11.814c-6.523,0-11.812-5.289-11.812-11.814c0-6.524,5.289-11.813,11.812-11.813
		C592.531,0.958,597.82,6.247,597.82,12.771z"/>
</g>
<g>
	<path fill="#9ABCB0" d="M597.82,12.771c0,6.525-5.289,11.814-11.814,11.814c-6.523,0-11.812-5.289-11.812-11.814
		c0-6.524,5.289-11.813,11.812-11.813C592.531,0.958,597.82,6.247,597.82,12.771z"/>
</g>
<text transform="matrix(1 0 0 1 550.1768 18.5645)" font-family="'Helvetica-Bold'" font-size="15.3261">Literature</text>
<g>
	<path fill="none" stroke="#666666" stroke-width="1.5" stroke-linecap="square" stroke-miterlimit="10" d="M672.743,329.26
		c0,6.524-5.289,11.814-11.813,11.814s-11.813-5.29-11.813-11.814c0-6.523,5.289-11.813,11.813-11.813
		C667.454,317.445,672.743,322.734,672.743,329.26z"/>
</g>
<g>
	<path fill="#9ABCB0" d="M672.743,329.26c0,6.524-5.289,11.814-11.813,11.814s-11.813-5.29-11.813-11.814
		c0-6.523,5.289-11.813,11.813-11.813C667.454,317.445,672.743,322.734,672.743,329.26z"/>
</g>
<text transform="matrix(1 0 0 1 629.4736 335.0527)" font-family="'Helvetica-Bold'" font-size="15.3261">Personal</text>
<g>
	<path fill="none" stroke="#666666" stroke-width="1.5" stroke-linecap="square" stroke-miterlimit="10" d="M663.717,487.606
		c0,6.523-5.289,11.813-11.813,11.813s-11.813-5.29-11.813-11.813c0-6.524,5.289-11.813,11.813-11.813
		S663.717,481.082,663.717,487.606z"/>
</g>
<g>
	<path fill="#9ABCB0" d="M663.717,487.606c0,6.523-5.289,11.813-11.813,11.813s-11.813-5.29-11.813-11.813
		c0-6.524,5.289-11.813,11.813-11.813S663.717,481.082,663.717,487.606z"/>
</g>
<text transform="matrix(1 0 0 1 637.6816 493.3994)" font-family="'Helvetica-Bold'" font-size="15.3261">Law</text>
<g>
	<g transform="matrix(1.6491887476862743, 0, 0, 1.6491887476862743, 201.02157122567252, 8.425020702063193)">
		<g>
			
				<path fill="none" stroke="#000000" stroke-width="2.0792" stroke-linecap="round" stroke-linejoin="round" stroke-miterlimit="10" d="
				M29.296,77.763l11.17-23.312"/>
		</g>
	</g>
	<g transform="matrix(1.6491887476862743, 0, 0, 1.6491887476862743, 201.02157122567252, 8.425020702063193)">
		<g>
			
				<path fill="none" stroke="#5F5F5F" stroke-width="1.2763" stroke-linecap="round" stroke-linejoin="round" stroke-miterlimit="10" d="
				M-22.851,77.763l11.171-23.312"/>
		</g>
	</g>
	<g transform="matrix(1.6491887476862743, 0, 0, 1.6491887476862743, 201.02157122567252, 8.425020702063193)">
		<g>
			
				<path fill="none" stroke="#C4C4C4" stroke-width="0.4632" stroke-linecap="round" stroke-linejoin="round" stroke-miterlimit="10" d="
				M-72.269,77.763l11.171-23.312"/>
		</g>
	</g>
	<text transform="matrix(1 0 0 1 65.5269 158.6017)" font-family="'Helvetica'" font-size="18">5.5%</text>
	<text transform="matrix(1 0 0 1 150.9585 158.6017)" font-family="'Helvetica'" font-size="18">6.5%</text>
	<text transform="matrix(1 0 0 1 231.0269 158.6017)" font-family="'Helvetica'" font-size="18">&gt;7.5%</text>
</g>
<text transform="matrix(1 0 0 1 65.5269 187.2687)" font-family="'Helvetica'" font-size="18">Average share of topic (target)</text>
<text transform="matrix(1 0 0 1 65.5269 208.8693)" font-family="'Helvetica'" font-size="18">in category (source)</text>
<g>
	<path fill="#9ABCB0" d="M247.476,301.541c0,13.676-11.087,24.762-24.763,24.762s-24.763-11.086-24.763-24.762
		c0-13.677,11.087-24.764,24.763-24.764S247.476,287.864,247.476,301.541z"/>
</g>
<text transform="matrix(1 0 0 1 204.5635 307.3121)" font-family="'Helvetica'" font-size="14.04">&gt;10%</text>
<g transform="matrix(1.6491887476862743, 0, 0, 1.6491887476862743, 201.02157122567252, 8.425020702063193)">
	<g>
		<path fill="#9ABCB0" d="M-14.24,177.733c0,6.076-4.925,11-11,11c-6.075,0-11-4.925-11-11c0-6.075,4.925-11,11-11
			C-19.165,166.732-14.24,171.658-14.24,177.733z"/>
	</g>
</g>
<text transform="matrix(1 0 0 1 149.2495 306.5319)" font-family="'Helvetica'" font-size="14.04">5%</text>
<g transform="matrix(1.6491887476862743, 0, 0, 1.6491887476862743, 201.02157122567252, 8.425020702063193)">
	<g>
		<path fill="#9ABCB0" d="M-50.544,177.733c0,3.984-3.23,7.214-7.215,7.214c-3.985,0-7.216-3.23-7.216-7.214
			c0-3.985,3.23-7.216,7.216-7.216C-53.774,170.518-50.544,173.748-50.544,177.733z"/>
	</g>
</g>
<text transform="matrix(1 0 0 1 91.5205 306.5314)" font-family="'Helvetica'" font-size="14.04">&lt;1%</text>
<text transform="matrix(1 0 0 1 69.5269 354.2687)" font-family="'Helvetica'" font-size="18">Share of category of all</text>
<text transform="matrix(1 0 0 1 69.5269 375.8702)" font-family="'Helvetica'" font-size="18">articles in a language edition</text>
<g transform="matrix(1.6491887476862743, 0, 0, 1.6491887476862743, 151.29711167001813, 300.29816141063003)">
	<text transform="matrix(0.6064 0 0 0.6064 -41.5088 108.7128)" font-family="'Helvetica-Bold'" font-size="32.0022">Network of topics</text>
	<text transform="matrix(0.6064 0 0 0.6064 -41.5088 131.9984)" font-family="'Helvetica-Bold'" font-size="32.0022">Italian Wikipedia</text>
</g>
</svg>
