<?xml version="1.0" encoding="utf-8"?>
<!-- Generator: Adobe Illustrator 16.0.4, SVG Export Plug-In . SVG Version: 6.00 Build 0)  -->
<!DOCTYPE svg PUBLIC "-//W3C//DTD SVG 1.1//EN" "http://www.w3.org/Graphics/SVG/1.1/DTD/svg11.dtd">
<svg version="1.1" id="Layer_1" xmlns:ev="http://www.w3.org/2001/xml-events"
	 xmlns="http://www.w3.org/2000/svg" xmlns:xlink="http://www.w3.org/1999/xlink" x="0px" y="0px" width="956.066px"
	 height="622.074px" viewBox="5.5 -12.574 956.066 622.074" enable-background="new 5.5 -12.574 956.066 622.074"
	 xml:space="preserve">
<title></title>
<desc>
	Creator: FreeHEP Graphics2D Driver Producer: org.freehep.graphicsio.svg.SVGGraphics2D Revision: 12753  Source:  Date: Monday, June 3, 2013 5:14:42 AM CEST
	</desc>
<g transform="matrix(1.5387571062264505, 0, 0, 1.5387571062264505, 164.3137170105702, -137.5826029802439)">
	<g>
		
			<path fill="none" stroke="#DBDBDB" stroke-width="0.2526" stroke-linecap="round" stroke-linejoin="round" stroke-miterlimit="10" d="
			M485.677,307.249c-96.09,26.383-245.075,39.297-332.766,28.846"/>
	</g>
</g>
<g transform="matrix(0.41653084115762334, -0.1143636415425112, 0.1143636415425112, 0.41653084115762334, 823.2969196403133, 334.39653046838896)">
	<g>
		<path fill="#DBDBDB" d="M196.761,56.4c0.246,0,0.451-0.202,0.449-0.451c0-0.248-0.202-0.452-0.448-0.451L196.761,56.4z"/>
	</g>
</g>
<g transform="matrix(-8.068620441808816, -0.9617017508517598, 0.9617017508517598, -8.068620441808816, 238.21921519263913, 381.79060622962913)">
	<g>
		<path fill="#DBDBDB" d="M-19.689,2.17c0.6,0.3,1.2,0.45,1.8,0.45c-0.6,0-1.2,0.15-1.8,0.45L-19.689,2.17z"/>
	</g>
</g>
<g transform="matrix(1.5387571062264505, 0, 0, 1.5387571062264505, 164.3137170105702, -137.5826029802439)">
	<g>
		
			<path fill="none" stroke="#000000" stroke-width="0.9" stroke-linecap="round" stroke-linejoin="round" stroke-miterlimit="10" d="
			M485.787,307.612c-65.15,21.763-164.667,32.663-222.279,24.346"/>
	</g>
</g>
<g transform="matrix(1.459480337984061, -0.48753520385745525, 0.48753520385745525, 1.459480337984061, 823.4859771387771, 335.0182694846987)">
	<g>
		<path d="M54.297,19.095c0.249,0,0.451-0.201,0.451-0.45c-0.001-0.248-0.202-0.449-0.45-0.449L54.297,19.095z"/>
	</g>
</g>
<g transform="matrix(-9.137801265817455, -1.319254174551392, 1.319254174551392, -9.137801265817455, 425.1725391528657, 374.0033250503494)">
	<g>
		<path d="M-15.491,1.872c0.6,0.3,1.2,0.45,1.8,0.45c-0.6,0-1.2,0.15-1.8,0.45L-15.491,1.872z"/>
	</g>
</g>
<g transform="matrix(1.5387571062264505, 0, 0, 1.5387571062264505, 164.3137170105702, -137.5826029802439)">
	<g>
		
			<path fill="none" stroke="#F9F9F9" stroke-width="0.0431" stroke-linecap="round" stroke-linejoin="round" stroke-miterlimit="10" d="
			M485.444,305.889c-34.375,2.414-84.222-4.194-111.338-14.758"/>
	</g>
</g>
<g transform="matrix(0.07353519659122272, -0.0051642473055273745, 0.0051642473055273745, 0.07353519659122272, 822.9002088238642, 332.0718651916972)">
	<g>
		<path fill="#F9F9F9" d="M1195.189,98.451c0.253,0.004,0.467-0.207,0.456-0.446c0.005-0.252-0.206-0.466-0.446-0.457
			L1195.189,98.451z"/>
	</g>
</g>
<g transform="matrix(-7.237573446245507, -2.8198608983798312, 2.8198608983798312, -7.237573446245507, 618.0670220038285, 301.199611565225)">
	<g>
		<path fill="#F9F9F9" d="M-15.053,4.144c0.6,0.3,1.2,0.45,1.8,0.45c-0.6,0-1.2,0.15-1.8,0.45L-15.053,4.144z"/>
	</g>
</g>
<g transform="matrix(1.5387571062264505, 0, 0, 1.5387571062264505, 164.3137170105702, -137.5826029802439)">
	<g>
		
			<path fill="none" stroke="#000000" stroke-width="0.9" stroke-linecap="round" stroke-linejoin="round" stroke-miterlimit="10" d="
			M302.206,125.102c-10.005,33.376-35.204,73.926-56.281,90.572"/>
	</g>
</g>
<g transform="matrix(0.44185024240406223, -1.4739544752976161, 1.4739544752976161, 0.44185024240406223, 509.61249278500503, 22.97509979889864)">
	<g>
		<path d="M2.456,80.94c0.249,0,0.45-0.202,0.45-0.45c0-0.249-0.202-0.45-0.45-0.451L2.456,80.94z"/>
	</g>
</g>
<g transform="matrix(-7.245709824755469, 5.721846964581319, -5.721846964581319, -7.245709824755469, 398.89408689648485, 189.272547846547)">
	<g>
		<path d="M-11.89-10.532c0.6,0.3,1.2,0.45,1.8,0.45c-0.6,0-1.2,0.15-1.8,0.45L-11.89-10.532z"/>
	</g>
</g>
<g transform="matrix(1.5387571062264505, 0, 0, 1.5387571062264505, 164.3137170105702, -137.5826029802439)">
	<g>
		
			<path fill="none" stroke="#DBDBDB" stroke-width="0.2544" stroke-linecap="round" stroke-linejoin="round" stroke-miterlimit="10" d="
			M301.241,124.731c-32.416,68.482-101.056,154.463-153.309,192.046"/>
	</g>
</g>
<g transform="matrix(0.18611068386763982, -0.3931651383963328, 0.3931651383963328, 0.18611068386763982, 507.9613859358389, 22.340987049144957)">
	<g>
		<path fill="#DBDBDB" d="M51.415,281.045c0.248-0.001,0.449-0.203,0.45-0.451c0.001-0.247-0.201-0.449-0.449-0.448L51.415,281.045z
			"/>
	</g>
</g>
<g transform="matrix(-6.5992284971240736, 4.746279857924986, -4.746279857924986, -6.5992284971240736, 232.64472500840603, 360.1790707246384)">
	<g>
		<path fill="#DBDBDB" d="M-16.651-10.862c0.6,0.3,1.2,0.45,1.8,0.45c-0.6,0-1.2,0.15-1.8,0.45L-16.651-10.862z"/>
	</g>
</g>
<g transform="matrix(1.5387571062264505, 0, 0, 1.5387571062264505, 164.3137170105702, -137.5826029802439)">
	<g>
		
			<path fill="none" stroke="#D4D4D4" stroke-width="0.2984" stroke-linecap="round" stroke-linejoin="round" stroke-miterlimit="10" d="
			M303.92,125.386c-2.22,59.176-25.784,140.702-52.632,182.094"/>
	</g>
</g>
<g transform="matrix(0.01913192419621809, -0.5098923356988635, 0.5098923356988635, 0.01913192419621809, 512.5420857058132, 23.46103298173651)">
	<g>
		<path fill="#D4D4D4" d="M-53.689,236.692c0.248,0,0.449-0.201,0.45-0.45c0-0.247-0.201-0.45-0.45-0.448L-53.689,236.692z"/>
	</g>
</g>
<g transform="matrix(-4.464452834622309, 6.882941455643588, -6.882941455643588, -4.464452834622309, 413.6256857292304, 348.55804533904984)">
	<g>
		<path fill="#D4D4D4" d="M-10.441-13.634c0.6,0.3,1.2,0.45,1.8,0.45c-0.6,0-1.2,0.15-1.8,0.45L-10.441-13.634z"/>
	</g>
</g>
<g transform="matrix(1.5387571062264505, 0, 0, 1.5387571062264505, 164.3137170105702, -137.5826029802439)">
	<g>
		
			<path fill="none" stroke="#D3D3D3" stroke-width="0.3107" stroke-linecap="round" stroke-linejoin="round" stroke-miterlimit="10" d="
			M87.267,291.548l19.539,21.047"/>
	</g>
</g>
<g transform="matrix(-0.36139536800418665, -0.3892869450676895, 0.3892869450676895, -0.36139536800418665, 142.12361995121475, 307.5535589080377)">
	<g>
		<path fill="#D3D3D3" d="M-205.23,211.872c0.25,0.001,0.45-0.202,0.45-0.45c0-0.248-0.201-0.45-0.449-0.448L-205.23,211.872z"/>
	</g>
</g>
<g transform="matrix(5.595976336715808, 6.0278595844259435, -6.0278595844259435, 5.595976336715808, 186.72204786918803, 355.59398027505495)">
	<g>
		<path fill="#D3D3D3" d="M10.657-14.104c0.6,0.3,1.2,0.45,1.8,0.45c-0.6,0-1.2,0.15-1.8,0.45L10.657-14.104z"/>
	</g>
</g>
<g transform="matrix(1.5387571062264505, 0, 0, 1.5387571062264505, 164.3137170105702, -137.5826029802439)">
	<g>
		
			<path fill="none" stroke="#000000" stroke-width="0.9" stroke-linecap="round" stroke-linejoin="round" stroke-miterlimit="10" d="
			M90.07,167.816c5.83,31.137,4.626,76.14-2.69,100.516"/>
	</g>
</g>
<g transform="matrix(-0.28321414995555005, -1.5124692318283224, 1.5124692318283224, -0.28321414995555005, 146.9157679246919, 96.00434629464107)">
	<g>
		<path d="M-34.399,97.147c0.249,0,0.45-0.201,0.45-0.45c0-0.249-0.202-0.45-0.45-0.45L-34.399,97.147z"/>
	</g>
</g>
<g transform="matrix(-2.653954628944804, 8.842871048372743, -8.842871048372743, -2.653954628944804, 137.00915764663097, 285.54625176940203)">
	<g>
		<path d="M-6.098-16.913c0.6,0.3,1.2,0.45,1.8,0.45c-0.6,0-1.2,0.15-1.8,0.45L-6.098-16.913z"/>
	</g>
</g>
<g transform="matrix(1.5387571062264505, 0, 0, 1.5387571062264505, 164.3137170105702, -137.5826029802439)">
	<g>
		
			<path fill="none" stroke="#D1D1D1" stroke-width="0.3221" stroke-linecap="round" stroke-linejoin="round" stroke-miterlimit="10" d="
			M473.923,198.211c-55.619,49.27-150.697,104.283-212.361,122.877"/>
	</g>
</g>
<g transform="matrix(0.41218637209014625, -0.3651278644715725, 0.3651278644715725, 0.41218637209014625, 803.2025869961949, 147.97266494407745)">
	<g>
		<path fill="#D1D1D1" d="M99.426,135.698c0.248,0.001,0.45-0.201,0.449-0.451c0.001-0.248-0.199-0.449-0.45-0.45L99.426,135.698z"
			/>
	</g>
</g>
<g transform="matrix(-7.89342575537761, 2.380031643304728, -2.380031643304728, -7.89342575537761, 424.3351168055959, 362.8188787912436)">
	<g>
		<path fill="#D1D1D1" d="M-16.765-4.704c0.6,0.3,1.2,0.45,1.8,0.45c-0.6,0-1.2,0.15-1.8,0.45L-16.765-4.704z"/>
	</g>
</g>
<g transform="matrix(1.5387571062264505, 0, 0, 1.5387571062264505, 164.3137170105702, -137.5826029802439)">
	<g>
		
			<path fill="none" stroke="#D4D4D4" stroke-width="0.3" stroke-linecap="round" stroke-linejoin="round" stroke-miterlimit="10" d="
			M95.768,162.134c39.978,7.607,92.91,31.588,118.227,53.564"/>
	</g>
</g>
<g transform="matrix(-0.5037974553452303, -0.09586432923039703, 0.09586432923039703, -0.5037974553452303, 156.65796104563807, 86.29058986803506)">
	<g>
		<path fill="#D4D4D4" d="M-306.286,7.892c0.249,0,0.45-0.201,0.45-0.45c0-0.248-0.201-0.45-0.449-0.45L-306.286,7.892z"/>
	</g>
</g>
<g transform="matrix(6.197558581786075, 5.379490929412889, -5.379490929412889, 6.197558581786075, 371.18983774563986, 188.6292545848833)">
	<g>
		<path fill="#D4D4D4" d="M11.719-9.703c0.6,0.3,1.2,0.45,1.8,0.45c-0.6,0-1.2,0.15-1.8,0.45L11.719-9.703z"/>
	</g>
</g>
<g transform="matrix(1.5387571062264505, 0, 0, 1.5387571062264505, 164.3137170105702, -137.5826029802439)">
	<g>
		
			<path fill="none" stroke="#2D2D2D" stroke-width="1.4729" stroke-linecap="round" stroke-linejoin="round" stroke-miterlimit="10" d="
			M92.783,166.694c27.392,40.089,44.45,101.278,38.102,136.669"/>
	</g>
</g>
<g transform="matrix(-1.4206844295887415, -2.0792545384332417, 2.0792545384332417, -1.4206844295887415, 151.55426118899996, 94.08540798931764)">
	<g>
		<path fill="#2D2D2D" d="M-42.984,45.881c0.248,0,0.45-0.201,0.45-0.45c0-0.248-0.202-0.45-0.45-0.45L-42.984,45.881z"/>
	</g>
</g>
<g transform="matrix(-1.8028739790081574, 10.051644315473965, -10.051644315473965, -1.8028739790081574, 213.09353645462625, 347.85652274353237)">
	<g>
		<path fill="#2D2D2D" d="M-4.435-14.838c0.6,0.3,1.2,0.45,1.8,0.45c-0.6,0-1.2,0.15-1.8,0.45L-4.435-14.838z"/>
	</g>
</g>
<g transform="matrix(1.5387571062264505, 0, 0, 1.5387571062264505, 164.3137170105702, -137.5826029802439)">
	<g>
		
			<path fill="none" stroke="#000000" stroke-width="1.9276" stroke-linecap="round" stroke-linejoin="round" stroke-miterlimit="10" d="
			M387.561,218.701c-41.098,13.81-101.695,20.19-135.348,14.25"/>
	</g>
</g>
<g transform="matrix(3.1240644360921483, -1.0497249378844618, 1.0497249378844618, 3.1240644360921483, 655.5456753108538, 183.00366698621502)">
	<g>
		<path d="M28.697,15.195c0.249,0,0.45-0.201,0.45-0.45c0-0.249-0.201-0.45-0.45-0.45L28.697,15.195z"/>
	</g>
</g>
<g transform="matrix(-10.822254677658847, -1.9099247594520077, 1.9099247594520077, -10.822254677658847, 402.4917205458446, 203.54829082575577)">
	<g>
		<path d="M-13.708,0.368c0.6,0.3,1.2,0.45,1.8,0.45c-0.6,0-1.2,0.15-1.8,0.45L-13.708,0.368z"/>
	</g>
</g>
<g transform="matrix(1.5387571062264505, 0, 0, 1.5387571062264505, 164.3137170105702, -137.5826029802439)">
	<g>
		
			<path fill="none" stroke="#E8E8E8" stroke-width="0.1591" stroke-linecap="round" stroke-linejoin="round" stroke-miterlimit="10" d="
			M391.373,222.785c-11.6,27.95-36.549,63.18-55.722,78.69"/>
	</g>
</g>
<g transform="matrix(0.10429118195431604, -0.25128268720383184, 0.25128268720383184, 0.10429118195431604, 662.0613968916715, 189.9869137669105)">
	<g>
		<path fill="#E8E8E8" d="M95.463,376.615c0.248-0.002,0.447-0.205,0.447-0.454c0-0.249-0.2-0.45-0.448-0.448L95.463,376.615z"/>
	</g>
</g>
<g transform="matrix(-6.193433934192459, 5.009607202878826, -5.009607202878826, -6.193433934192459, 554.4053139337481, 334.5443578417532)">
	<g>
		<path fill="#E8E8E8" d="M-12.986-9.625c0.6,0.3,1.2,0.45,1.8,0.45c-0.6,0-1.2,0.15-1.8,0.45L-12.986-9.625z"/>
	</g>
</g>
<g transform="matrix(1.5387571062264505, 0, 0, 1.5387571062264505, 164.3137170105702, -137.5826029802439)">
	<g>
		
			<path fill="none" stroke="#7D7D7D" stroke-width="0.9134" stroke-linecap="round" stroke-linejoin="round" stroke-miterlimit="10" d="
			M388.587,220.637c-63.234,48.098-168.252,96.18-234.565,107.394"/>
	</g>
</g>
<g transform="matrix(1.2429646586108678, -0.9454527188283013, 0.9454527188283013, 1.2429646586108678, 657.2998809523392, 186.31463856419543)">
	<g>
		<path fill="#7D7D7D" d="M47.439,49.093c0.25,0,0.45-0.201,0.45-0.45c0-0.249-0.201-0.45-0.45-0.45L47.439,49.093z"/>
	</g>
</g>
<g transform="matrix(-9.125893993884912, 1.5432702860453702, -1.5432702860453702, -9.125893993884912, 238.00468236061414, 373.01676047378965)">
	<g>
		<path fill="#7D7D7D" d="M-17.503-2.77c0.6,0.3,1.2,0.45,1.8,0.45c-0.6,0-1.2,0.15-1.8,0.45L-17.503-2.77z"/>
	</g>
</g>
<g transform="matrix(1.5387571062264505, 0, 0, 1.5387571062264505, 164.3137170105702, -137.5826029802439)">
	<g>
		
			<path fill="none" stroke="#878787" stroke-width="0.8427" stroke-linecap="round" stroke-linejoin="round" stroke-miterlimit="10" d="
			M389.907,221.949c-31.139,41.48-88.231,85.487-127.52,98.292"/>
	</g>
</g>
<g transform="matrix(0.8649932226230161, -1.1522709263586208, 1.1522709263586208, 0.8649932226230161, 659.5568311488557, 188.55733666165986)">
	<g>
		<path fill="#878787" d="M35.098,64.992c0.248,0,0.45-0.201,0.45-0.45c0-0.249-0.201-0.451-0.45-0.45L35.098,64.992z"/>
	</g>
</g>
<g transform="matrix(-8.684983833588644, 2.830537532707121, -2.830537532707121, -8.684983833588644, 424.1628941588953, 362.2698325239707)">
	<g>
		<path fill="#878787" d="M-15.218-4.594c0.6,0.3,1.2,0.45,1.8,0.45c-0.6,0-1.2,0.15-1.8,0.45L-15.218-4.594z"/>
	</g>
</g>
<g transform="matrix(1.5387571062264505, 0, 0, 1.5387571062264505, 164.3137170105702, -137.5826029802439)">
	<g>
		
			<path fill="none" stroke="#626262" stroke-width="1.0999" stroke-linecap="round" stroke-linejoin="round" stroke-miterlimit="10" d="
			M393.276,223.266c-1.941,19.065-11.149,41.197-20.566,49.433"/>
	</g>
</g>
<g transform="matrix(0.19049936244365953, -1.870791469851779, 1.870791469851779, 0.19049936244365953, 665.316181858397, 190.80912135275395)">
	<g>
		<path fill="#626262" d="M-2.409,56.369c0.248-0.001,0.45-0.202,0.45-0.451c0-0.248-0.202-0.449-0.45-0.45L-2.409,56.369z"/>
	</g>
</g>
<g transform="matrix(-7.20676754935388, 6.303077461722482, -6.303077461722482, -7.20676754935388, 615.7411357894914, 287.93205784664025)">
	<g>
		<path fill="#626262" d="M-10.004-8.381c0.6,0.3,1.2,0.45,1.8,0.45c-0.6,0-1.2,0.15-1.8,0.45L-10.004-8.381z"/>
	</g>
</g>
<g transform="matrix(1.5387571062264505, 0, 0, 1.5387571062264505, 164.3137170105702, -137.5826029802439)">
	<g>
		
			<path fill="none" stroke="#A6A6A6" stroke-width="0.6261" stroke-linecap="round" stroke-linejoin="round" stroke-miterlimit="10" d="
			M221.764,236.341l-76.223,76.485"/>
	</g>
</g>
<g transform="matrix(0.7555784478429495, -0.7581862853626166, 0.7581862853626166, 0.7555784478429495, 372.07677850625544, 213.16439572030617)">
	<g>
		<path fill="#A6A6A6" d="M79.471,97.301c0.247-0.001,0.449-0.202,0.45-0.45c-0.001-0.249-0.202-0.451-0.45-0.45L79.471,97.301z"/>
	</g>
</g>
<g transform="matrix(-6.186525858757486, 6.207878313022053, -6.207878313022053, -6.186525858757486, 229.38416406743534, 356.34950588180783)">
	<g>
		<path fill="#A6A6A6" d="M-13.812-12.279c0.6,0.3,1.2,0.45,1.8,0.45c-0.6,0-1.2,0.15-1.8,0.45L-13.812-12.279z"/>
	</g>
</g>
<g transform="matrix(1.5387571062264505, 0, 0, 1.5387571062264505, 164.3137170105702, -137.5826029802439)">
	<g>
		
			<path fill="none" stroke="#000000" stroke-width="0.9" stroke-linecap="round" stroke-linejoin="round" stroke-miterlimit="10" d="
			M164.578,182.17l47.334,34.225"/>
	</g>
</g>
<g transform="matrix(-1.2469582524009188, -0.9015922297422746, 0.9015922297422746, -1.2469582524009188, 274.3041153484975, 120.54716524948736)">
	<g>
		<path d="M-83.891,43.314c0.248,0,0.45-0.201,0.45-0.45c0-0.249-0.201-0.45-0.45-0.45L-83.891,43.314z"/>
	</g>
</g>
<g transform="matrix(7.481749514405513, 5.409553378453648, -5.409553378453648, 7.481749514405513, 370.19719196042354, 189.88104438531906)">
	<g>
		<path d="M10.9-7.594c0.6,0.3,1.2,0.45,1.8,0.45c-0.6,0-1.2,0.15-1.8,0.45L10.9-7.594z"/>
	</g>
</g>
<g transform="matrix(1.5387571062264505, 0, 0, 1.5387571062264505, 164.3137170105702, -137.5826029802439)">
	<g>
		
			<path fill="none" stroke="#D6D6D6" stroke-width="0.2879" stroke-linecap="round" stroke-linejoin="round" stroke-miterlimit="10" d="
			M302.286,450.792c-30.297-55.908-61.677-146.362-70.091-202.032"/>
	</g>
</g>
<g transform="matrix(0.23451609185766262, 0.43276662348031214, -0.43276662348031214, 0.23451609185766262, 509.7494491174119, 579.8165491264566)">
	<g>
		<path fill="#D6D6D6" d="M73.468-236.355c0.247,0.003,0.447-0.2,0.449-0.449c-0.001-0.249-0.203-0.451-0.449-0.449L73.468-236.355z
			"/>
	</g>
</g>
<g transform="matrix(-1.2233601471733957, -8.094080919157642, 8.094080919157642, -1.2233601471733957, 387.46411477281896, 218.20959182561495)">
	<g>
		<path fill="#D6D6D6" d="M-5.709,15.26c0.6,0.3,1.2,0.45,1.8,0.45c-0.6,0-1.2,0.15-1.8,0.45L-5.709,15.26z"/>
	</g>
</g>
<g transform="matrix(1.5387571062264505, 0, 0, 1.5387571062264505, 164.3137170105702, -137.5826029802439)">
	<g>
		
			<path fill="none" stroke="#CFCFCF" stroke-width="0.334" stroke-linecap="round" stroke-linejoin="round" stroke-miterlimit="10" d="
			M351.018,284.166c-36.189-4.353-83.817-23.281-106.382-42.276"/>
	</g>
</g>
<g transform="matrix(0.56693759694535, 0.06820534378304866, -0.06820534378304866, 0.56693759694535, 593.0662575137062, 294.9322568769496)">
	<g>
		<path fill="#CFCFCF" d="M194.647-14.592c0.248-0.001,0.451-0.202,0.449-0.45c0.001-0.249-0.201-0.45-0.449-0.45L194.647-14.592z"
			/>
	</g>
</g>
<g transform="matrix(-6.322789757231208, -5.322539668451759, 5.322539668451759, -6.322789757231208, 398.53832445029434, 212.00720510781275)">
	<g>
		<path fill="#CFCFCF" d="M-14.926,8.537c0.6,0.3,1.2,0.45,1.8,0.45c-0.6,0-1.2,0.15-1.8,0.45L-14.926,8.537z"/>
	</g>
</g>
<g transform="matrix(1.5387571062264505, 0, 0, 1.5387571062264505, 164.3137170105702, -137.5826029802439)">
	<g>
		
			<path fill="none" stroke="#737373" stroke-width="0.9804" stroke-linecap="round" stroke-linejoin="round" stroke-miterlimit="10" d="
			M328.577,307.555l15.135-11.348"/>
	</g>
</g>
<g transform="matrix(-1.341205075643945, 1.0055673021761447, -1.0055673021761447, -1.341205075643945, 554.6978928567933, 334.91998400425035)">
	<g>
		<path fill="#737373" d="M-54.724-41.138c0.249,0.001,0.449-0.201,0.45-0.449c0.001-0.249-0.202-0.45-0.45-0.45L-54.724-41.138z"/>
	</g>
</g>
<g transform="matrix(7.496975058000606, -5.620850323680737, 5.620850323680737, 7.496975058000606, 595.5700249511385, 304.27613963573356)">
	<g>
		<path fill="#737373" d="M7.445,6.99c0.6,0.3,1.2,0.45,1.8,0.45c-0.6,0-1.2,0.15-1.8,0.45L7.445,6.99z"/>
	</g>
</g>
<g transform="matrix(1.5387571062264505, 0, 0, 1.5387571062264505, 164.3137170105702, -137.5826029802439)">
	<g>
		
			<path fill="none" stroke="#CDCDCD" stroke-width="0.3521" stroke-linecap="round" stroke-linejoin="round" stroke-miterlimit="10" d="
			M314.987,312.89L153.15,329.937"/>
	</g>
</g>
<g transform="matrix(0.5987269738131045, -0.06306291432137137, 0.06306291432137137, 0.5987269738131045, 531.4634259867591, 344.0426422535301)">
	<g>
		<path fill="#CDCDCD" d="M194.19,20.631c0.248,0,0.449-0.202,0.448-0.449c0-0.25-0.2-0.452-0.45-0.452L194.19,20.631z"/>
	</g>
</g>
<g transform="matrix(-8.250186658441137, 0.8689784110829168, -0.8689784110829168, -8.250186658441137, 238.26620955219897, 374.92461642202477)">
	<g>
		<path fill="#CDCDCD" d="M-19.446-1.915c0.6,0.3,1.2,0.45,1.8,0.45c-0.6,0-1.2,0.15-1.8,0.45L-19.446-1.915z"/>
	</g>
</g>
<g transform="matrix(1.5387571062264505, 0, 0, 1.5387571062264505, 164.3137170105702, -137.5826029802439)">
	<g>
		
			<path fill="none" stroke="#F7F7F7" stroke-width="0.0593" stroke-linecap="round" stroke-linejoin="round" stroke-miterlimit="10" d="
			M315.079,313.515l-53.417,10.185"/>
	</g>
</g>
<g transform="matrix(0.09953831412746741, -0.018980118858824464, 0.018980118858824464, 0.09953831412746741, 531.6213495752675, 345.1115262028687)">
	<g>
		<path fill="#F7F7F7" d="M1139.756,215.065c0.255,0,0.459-0.197,0.459-0.452c-0.002-0.246-0.21-0.442-0.446-0.438L1139.756,215.065
			z"/>
	</g>
</g>
<g transform="matrix(-7.657155370572128, 1.4600781651559085, -1.4600781651559085, -7.657155370572128, 424.97979536189564, 365.446101808274)">
	<g>
		<path fill="#F7F7F7" d="M-18.009-3.24c0.6,0.3,1.2,0.45,1.8,0.45c-0.6,0-1.2,0.15-1.8,0.45L-18.009-3.24z"/>
	</g>
</g>
<g transform="matrix(1.5387571062264505, 0, 0, 1.5387571062264505, 164.3137170105702, -137.5826029802439)">
	<g>
		
			<path fill="none" stroke="#A2A2A2" stroke-width="0.6506" stroke-linecap="round" stroke-linejoin="round" stroke-miterlimit="10" d="
			M162.238,184.197l63.75,121.507"/>
	</g>
</g>
<g transform="matrix(-0.516776574175101, -0.984962615292635, 0.984962615292635, -0.516776574175101, 270.3044410202755, 124.01277327616174)">
	<g>
		<path fill="#A2A2A2" d="M-77.391,105.693c0.248,0,0.45-0.202,0.45-0.45c0-0.249-0.201-0.45-0.45-0.45L-77.391,105.693z"/>
	</g>
</g>
<g transform="matrix(4.091325883198497, 7.797959975957055, -7.797959975957055, 4.091325883198497, 387.48280451062044, 347.35166502719204)">
	<g>
		<path fill="#A2A2A2" d="M5.111-13.743c0.6,0.3,1.2,0.45,1.8,0.45c-0.6,0-1.2,0.15-1.8,0.45L5.111-13.743z"/>
	</g>
</g>
<g transform="matrix(1.5387571062264505, 0, 0, 1.5387571062264505, 164.3137170105702, -137.5826029802439)">
	<g>
		
			<path fill="none" stroke="#B1B1B1" stroke-width="0.5448" stroke-linecap="round" stroke-linejoin="round" stroke-miterlimit="10" d="
			M227.213,384.485c-31.998,3.553-69.934-9.519-84.732-29.197"/>
	</g>
</g>
<g transform="matrix(0.9257547088893555, -0.10278171249412149, 0.10278171249412149, 0.9257547088893555, 381.39326060673, 466.45028167878615)">
	<g>
		<path fill="#B1B1B1" d="M142.901,2.917c0.249,0,0.451-0.202,0.451-0.45c0-0.249-0.201-0.451-0.45-0.451L142.901,2.917z"/>
	</g>
</g>
<g transform="matrix(-5.184043903252267, -6.893493266664665, 6.893493266664665, -5.184043903252267, 226.15723761063626, 402.7445259351938)">
	<g>
		<path fill="#B1B1B1" d="M-11.559,13.691c0.6,0.3,1.2,0.45,1.8,0.45c-0.6,0-1.2,0.15-1.8,0.45L-11.559,13.691z"/>
	</g>
</g>
<g transform="matrix(1.5387571062264505, 0, 0, 1.5387571062264505, 164.3137170105702, -137.5826029802439)">
	<g>
		
			<path fill="none" stroke="#000000" stroke-width="0.9" stroke-linecap="round" stroke-linejoin="round" stroke-miterlimit="10" d="
			M240.534,368.555l-0.972-14.408"/>
	</g>
</g>
<g transform="matrix(0.10350200543875548, 1.5352722126165625, -1.5352722126165625, 0.10350200543875548, 404.169054074815, 439.21454386976313)">
	<g>
		<path d="M-0.583-84.439c0.249,0,0.45-0.201,0.45-0.451c0-0.248-0.201-0.449-0.449-0.449L-0.583-84.439z"/>
	</g>
</g>
<g transform="matrix(-0.6210120326325329, -9.211633275699375, 9.211633275699375, -0.6210120326325329, 401.26627482306367, 396.1568629515824)">
	<g>
		<path d="M-2.17,13.698c0.6,0.3,1.2,0.45,1.8,0.45c-0.6,0-1.2,0.15-1.8,0.45L-2.17,13.698z"/>
	</g>
</g>
<g transform="matrix(1.5387571062264505, 0, 0, 1.5387571062264505, 164.3137170105702, -137.5826029802439)">
	<g>
		
			<path fill="none" stroke="#888888" stroke-width="0.8374" stroke-linecap="round" stroke-linejoin="round" stroke-miterlimit="10" d="
			M249.722,337.63c11.148,8.783,16.618,19.59,9.196,27.263"/>
	</g>
</g>
<g transform="matrix(-1.1245940715969835, -0.8861926774711351, 0.8861926774711351, -1.1245940715969835, 419.8781074109206, 386.34019556921794)">
	<g>
		<path fill="#888888" d="M-68.7,58.493c0.248,0,0.451-0.202,0.451-0.451c-0.001-0.248-0.202-0.45-0.45-0.45L-68.7,58.493z"/>
	</g>
</g>
<g transform="matrix(-6.344641917132522, 6.559102286652656, -6.559102286652656, -6.344641917132522, 422.9111982767399, 446.07156448158844)">
	<g>
		<path fill="#888888" d="M-12.398-9.773c0.6,0.3,1.2,0.45,1.8,0.45c-0.6,0-1.2,0.15-1.8,0.45L-12.398-9.773z"/>
	</g>
</g>
<g transform="matrix(1.5387571062264505, 0, 0, 1.5387571062264505, 164.3137170105702, -137.5826029802439)">
	<g>
		
			<path fill="none" stroke="#F0F0F0" stroke-width="0.1037" stroke-linecap="round" stroke-linejoin="round" stroke-miterlimit="10" d="
			M298.677,456.586c-46.783-1.872-115.934-15.596-154.454-30.653"/>
	</g>
</g>
<g transform="matrix(0.17707329651293255, 0.007088667557994607, -0.007088667557994607, 0.17707329651293255, 503.57845458483655, 589.7231432623131)">
	<g>
		<path fill="#F0F0F0" d="M672.863-166.154c0.253-0.005,0.45-0.2,0.45-0.454c0.001-0.243-0.2-0.444-0.454-0.445L672.863-166.154z"/>
	</g>
</g>
<g transform="matrix(-7.330878922643819, -2.865460421960646, 2.865460421960646, -7.330878922643819, 224.84171838705026, 531.5836892028807)">
	<g>
		<path fill="#F0F0F0" d="M-18.462,8.643c0.6,0.3,1.2,0.45,1.8,0.45c-0.6,0-1.2,0.15-1.8,0.45L-18.462,8.643z"/>
	</g>
</g>
<g transform="matrix(1.5387571062264505, 0, 0, 1.5387571062264505, 164.3137170105702, -137.5826029802439)">
	<g>
		
			<path fill="none" stroke="#E0E0E0" stroke-width="0.2156" stroke-linecap="round" stroke-linejoin="round" stroke-miterlimit="10" d="
			M300.507,452.174l-93.176-86.161"/>
	</g>
</g>
<g transform="matrix(0.2706569077218548, 0.25028191106176656, -0.25028191106176656, 0.2706569077218548, 506.70668466871047, 582.1807539992006)">
	<g>
		<path fill="#E0E0E0" d="M194.87-268.335c0.244-0.002,0.446-0.2,0.447-0.449c0-0.249-0.204-0.45-0.451-0.453L194.87-268.335z"/>
	</g>
</g>
<g transform="matrix(-5.9194483310259605, -5.473833471278266, 5.473833471278266, -5.9194483310259605, 335.5623607046227, 423.9201397416647)">
	<g>
		<path fill="#E0E0E0" d="M-13.601,11.84c0.6,0.3,1.2,0.45,1.8,0.45c-0.6,0-1.2,0.15-1.8,0.45L-13.601,11.84z"/>
	</g>
</g>
<g transform="matrix(1.5387571062264505, 0, 0, 1.5387571062264505, 164.3137170105702, -137.5826029802439)">
	<g>
		
			<path fill="none" stroke="#343434" stroke-width="1.4262" stroke-linecap="round" stroke-linejoin="round" stroke-miterlimit="10" d="
			M225.401,336.943c-23.318,16.331-56.465,21.241-74.033,10.965"/>
	</g>
</g>
<g transform="matrix(1.997311711061943, -1.3987980382734018, 1.3987980382734018, 1.997311711061943, 378.2958591984004, 385.16654577808276)">
	<g>
		<path fill="#343434" d="M45.634,30.269c0.248,0,0.45-0.201,0.45-0.45c0-0.248-0.202-0.45-0.451-0.45L45.634,30.269z"/>
	</g>
</g>
<g transform="matrix(-8.746279393537991, -5.1150927032387985, 5.1150927032387985, -8.746279393537991, 234.22596252684014, 393.68465205636767)">
	<g>
		<path fill="#343434" d="M-14.091,7.324c0.6,0.3,1.2,0.45,1.8,0.45c-0.6,0-1.2,0.15-1.8,0.45L-14.091,7.324z"/>
	</g>
</g>
<g transform="matrix(1.5387571062264505, 0, 0, 1.5387571062264505, 164.3137170105702, -137.5826029802439)">
	<g>
		
			<path fill="none" stroke="#A8A8A8" stroke-width="0.6068" stroke-linecap="round" stroke-linejoin="round" stroke-miterlimit="10" d="
			M224.616,335.697l-14.032,7.918"/>
	</g>
</g>
<g transform="matrix(0.9035472753958999, -0.5098448891762489, 0.5098448891762489, 0.9035472753958999, 376.95303910467794, 383.0358217504363)">
	<g>
		<path fill="#A8A8A8" d="M113.563,60.036c0.249-0.001,0.451-0.202,0.451-0.45c0-0.249-0.202-0.451-0.45-0.451L113.563,60.036z"/>
	</g>
</g>
<g transform="matrix(-7.604187557049915, 4.290817169030576, -4.290817169030576, -7.604187557049915, 337.7544485887315, 405.15442205135696)">
	<g>
		<path fill="#A8A8A8" d="M-15.81-7.53c0.6,0.3,1.2,0.45,1.8,0.45c-0.6,0-1.2,0.15-1.8,0.45L-15.81-7.53z"/>
	</g>
</g>
<g transform="matrix(1.5387571062264505, 0, 0, 1.5387571062264505, 164.3137170105702, -137.5826029802439)">
	<g>
		
			<path fill="none" stroke="#CDCDCD" stroke-width="0.3489" stroke-linecap="round" stroke-linejoin="round" stroke-miterlimit="10" d="
			M185.296,357.748c-19.934,10.918-40.869,10.731-46.76-0.42"/>
	</g>
</g>
<g transform="matrix(0.5231925355233046, -0.2865809547255454, 0.2865809547255454, 0.5231925355233046, 309.7274375274749, 420.7369674637513)">
	<g>
		<path fill="#CDCDCD" d="M211.715,101.449c0.25-0.001,0.451-0.203,0.451-0.451c0.001-0.25-0.201-0.45-0.451-0.45L211.715,101.449z"
			/>
	</g>
</g>
<g transform="matrix(-3.872528516680037, -7.330280562965194, 7.330280562965194, -3.872528516680037, 222.03588628025142, 405.359539575771)">
	<g>
		<path fill="#CDCDCD" d="M-9.495,15.741c0.6,0.3,1.2,0.45,1.8,0.45c-0.6,0-1.2,0.15-1.8,0.45L-9.495,15.741z"/>
	</g>
</g>
<g transform="matrix(1.5387571062264505, 0, 0, 1.5387571062264505, 164.3137170105702, -137.5826029802439)">
	<g>
		
			<path fill="none" stroke="#000000" stroke-width="0.9" stroke-linecap="round" stroke-linejoin="round" stroke-miterlimit="10" d="
			M133.879,414.386l45.553-46.7"/>
	</g>
</g>
<g transform="matrix(-1.0744599690435193, 1.1015031579098622, -1.1015031579098622, -1.0744599690435193, 221.8173384417389, 517.5733827636788)">
	<g>
		<path d="M-75.537-60.686c0.249,0,0.45-0.201,0.45-0.45c0-0.249-0.201-0.45-0.45-0.45L-75.537-60.686z"/>
	</g>
</g>
<g transform="matrix(6.4467598142611156, -6.609018947459173, 6.609018947459173, 6.4467598142611156, 312.59403476169854, 424.5119188265238)">
	<g>
		<path d="M9.381,9.739c0.6,0.3,1.2,0.45,1.8,0.45c-0.6,0-1.2,0.15-1.8,0.45L9.381,9.739z"/>
	</g>
</g>
<g transform="matrix(1.5387571062264505, 0, 0, 1.5387571062264505, 164.3137170105702, -137.5826029802439)">
	<g>
		<path fill="none" stroke="#666666" stroke-width="1.35" stroke-linecap="square" stroke-miterlimit="10" d="M498.719,305.399
			c0,3.484-2.824,6.308-6.308,6.308c-3.484,0-6.308-2.824-6.308-6.308c0-3.484,2.823-6.308,6.308-6.308
			C495.894,299.092,498.719,301.916,498.719,305.399z"/>
	</g>
</g>
<g transform="matrix(1.5387571062264505, 0, 0, 1.5387571062264505, 164.3137170105702, -137.5826029802439)">
	<g>
		<path fill="#FFBB61" d="M498.719,305.399c0,3.484-2.824,6.308-6.308,6.308c-3.484,0-6.308-2.824-6.308-6.308
			c0-3.484,2.823-6.308,6.308-6.308C495.894,299.092,498.719,301.916,498.719,305.399z"/>
	</g>
</g>
<g transform="matrix(1.5387571062264505, 0, 0, 1.5387571062264505, 791.6408710046851, 338.21393289390653)">
	<text transform="matrix(0.6499 0 0 0.6499 59.4766 0.2725)" font-family="'Helvetica-Bold'" font-size="16.6186">Literature</text>
</g>
<g transform="matrix(1.5387571062264505, 0, 0, 1.5387571062264505, 164.3137170105702, -137.5826029802439)">
	<g>
		<path fill="none" stroke="#666666" stroke-width="1.35" stroke-linecap="square" stroke-miterlimit="10" d="M310.365,118.527
			c0,3.418-2.77,6.189-6.188,6.189c-3.418,0-6.189-2.771-6.189-6.189c0-3.418,2.771-6.188,6.189-6.188
			C307.595,112.339,310.365,115.11,310.365,118.527z"/>
	</g>
</g>
<g transform="matrix(1.5387571062264505, 0, 0, 1.5387571062264505, 164.3137170105702, -137.5826029802439)">
	<g>
		<path fill="#FFBB61" d="M310.365,118.527c0,3.418-2.77,6.189-6.188,6.189c-3.418,0-6.189-2.771-6.189-6.189
			c0-3.418,2.771-6.188,6.189-6.188C307.595,112.339,310.365,115.11,310.365,118.527z"/>
	</g>
</g>
<g transform="matrix(1.5387571062264505, 0, 0, 1.5387571062264505, 474.2802243788843, 18.713146932848545)">
	<text transform="matrix(0.6499 0 0 0.6499 80.1009 21.036)" font-family="'Helvetica-Bold'" font-size="16.6186">Business</text>
</g>
<g transform="matrix(1.5387571062264505, 0, 0, 1.5387571062264505, 164.3137170105702, -137.5826029802439)">
	<g>
		<path fill="none" stroke="#666666" stroke-width="1.35" stroke-linecap="square" stroke-miterlimit="10" d="M89.025,285.969
			c0,3.832-3.107,6.939-6.938,6.939c-3.832,0-6.939-3.107-6.939-6.939s3.107-6.938,6.939-6.938
			C85.919,279.03,89.025,282.137,89.025,285.969z"/>
	</g>
</g>
<g transform="matrix(1.5387571062264505, 0, 0, 1.5387571062264505, 164.3137170105702, -137.5826029802439)">
	<g>
		<path fill="#FFBB61" d="M89.025,285.969c0,3.832-3.107,6.939-6.938,6.939c-3.832,0-6.939-3.107-6.939-6.939
			s3.107-6.938,6.939-6.938C85.919,279.03,89.025,282.137,89.025,285.969z"/>
	</g>
</g>
<g transform="matrix(1.5387571062264505, 0, 0, 1.5387571062264505, 82.05108848283791, 304.9923134829949)">
	<text transform="matrix(0.6499 0 0 0.6499 105.5912 2.4315)" font-family="'Helvetica-Bold'" font-size="16.6186">Exploration</text>
</g>
<g transform="matrix(1.5387571062264505, 0, 0, 1.5387571062264505, 164.3137170105702, -137.5826029802439)">
	<g>
		<path fill="none" stroke="#666666" stroke-width="1.35" stroke-linecap="square" stroke-miterlimit="10" d="M485.278,193.65
			c0,3.426-2.778,6.204-6.204,6.204s-6.204-2.777-6.204-6.204c0-3.427,2.778-6.204,6.204-6.204S485.278,190.223,485.278,193.65z"/>
	</g>
</g>
<g transform="matrix(1.5387571062264505, 0, 0, 1.5387571062264505, 164.3137170105702, -137.5826029802439)">
	<g>
		<path fill="#FFBB61" d="M485.278,193.65c0,3.426-2.778,6.204-6.204,6.204s-6.204-2.777-6.204-6.204
			c0-3.427,2.778-6.204,6.204-6.204S485.278,190.223,485.278,193.65z"/>
	</g>
</g>
<g transform="matrix(1.5387571062264505, 0, 0, 1.5387571062264505, 798.4057577834287, 147.15224180556174)">
	<text transform="matrix(0.6499 0 0 0.6499 59.0374 12.6894)" font-family="'Helvetica-Bold'" font-size="16.6186">Art</text>
</g>
<g transform="matrix(1.5387571062264505, 0, 0, 1.5387571062264505, 164.3137170105702, -137.5826029802439)">
	<g>
		<path fill="none" stroke="#666666" stroke-width="1.35" stroke-linecap="square" stroke-miterlimit="10" d="M95.219,160.8
			c0,3.569-2.893,6.463-6.462,6.463c-3.57,0-6.463-2.893-6.463-6.463c0-3.569,2.893-6.463,6.463-6.463
			C92.325,154.337,95.219,157.231,95.219,160.8z"/>
	</g>
</g>
<g transform="matrix(1.5387571062264505, 0, 0, 1.5387571062264505, 164.3137170105702, -137.5826029802439)">
	<g>
		<path fill="#FFBB61" d="M95.219,160.8c0,3.569-2.893,6.463-6.462,6.463c-3.57,0-6.463-2.893-6.463-6.463
			c0-3.569,2.893-6.463,6.463-6.463C92.325,154.337,95.219,157.231,95.219,160.8z"/>
	</g>
</g>
<g transform="matrix(1.5387571062264505, 0, 0, 1.5387571062264505, 110.48042784769059, 90.98793614227775)">
	<text transform="matrix(0.6499 0 0 0.6499 103.744 16.3394)" font-family="'Helvetica-Bold'" font-size="16.6186">Warfare</text>
</g>
<g transform="matrix(1.5387571062264505, 0, 0, 1.5387571062264505, 164.3137170105702, -137.5826029802439)">
	<g>
		<path fill="none" stroke="#666666" stroke-width="1.35" stroke-linecap="square" stroke-miterlimit="10" d="M400.035,216.551
			c0,3.355-2.72,6.075-6.075,6.075c-3.355,0-6.075-2.72-6.075-6.075s2.72-6.075,6.075-6.075
			C397.315,210.476,400.035,213.196,400.035,216.551z"/>
	</g>
</g>
<g transform="matrix(1.5387571062264505, 0, 0, 1.5387571062264505, 164.3137170105702, -137.5826029802439)">
	<g>
		<path fill="#FFBB61" d="M400.035,216.551c0,3.355-2.72,6.075-6.075,6.075c-3.355,0-6.075-2.72-6.075-6.075s2.72-6.075,6.075-6.075
			C397.315,210.476,400.035,213.196,400.035,216.551z"/>
	</g>
</g>
<g transform="matrix(1.5387571062264505, 0, 0, 1.5387571062264505, 622.5901263883417, 186.30632679637915)">
	<text transform="matrix(0.6499 0 0 0.6499 70.4631 10.1446)" font-family="'Helvetica-Bold'" font-size="16.6186">Education</text>
</g>
<g transform="matrix(1.5387571062264505, 0, 0, 1.5387571062264505, 164.3137170105702, -137.5826029802439)">
	<g>
		<path fill="none" stroke="#666666" stroke-width="1.35" stroke-linecap="square" stroke-miterlimit="10" d="M239.038,228.888
			c0,5.438-4.408,9.847-9.847,9.847c-5.438,0-9.847-4.409-9.847-9.847c0-5.439,4.41-9.847,9.847-9.847
			C234.63,219.041,239.038,223.45,239.038,228.888z"/>
	</g>
</g>
<g transform="matrix(1.5387571062264505, 0, 0, 1.5387571062264505, 164.3137170105702, -137.5826029802439)">
	<g>
		<path fill="#FFBB61" d="M239.038,228.888c0,5.438-4.408,9.847-9.847,9.847c-5.438,0-9.847-4.409-9.847-9.847
			c0-5.439,4.41-9.847,9.847-9.847C234.63,219.041,239.038,223.45,239.038,228.888z"/>
	</g>
</g>
<g transform="matrix(1.5387571062264505, 0, 0, 1.5387571062264505, 353.1063659237957, 207.4002316988939)">
	<text transform="matrix(0.6499 0 0 0.6499 87.9764 8.7737)" font-family="'Helvetica-Bold'" font-size="16.6186">Politics</text>
</g>
<g transform="matrix(1.5387571062264505, 0, 0, 1.5387571062264505, 164.3137170105702, -137.5826029802439)">
	<g>
		<path fill="none" stroke="#666666" stroke-width="1.35" stroke-linecap="square" stroke-miterlimit="10" d="M365.484,285.074
			c0,3.823-3.099,6.923-6.923,6.923c-3.823,0-6.923-3.1-6.923-6.923s3.1-6.923,6.923-6.923
			C362.385,278.151,365.484,281.251,365.484,285.074z"/>
	</g>
</g>
<g transform="matrix(1.5387571062264505, 0, 0, 1.5387571062264505, 164.3137170105702, -137.5826029802439)">
	<g>
		<path fill="#FFBB61" d="M365.484,285.074c0,3.823-3.099,6.923-6.923,6.923c-3.823,0-6.923-3.1-6.923-6.923s3.1-6.923,6.923-6.923
			C362.385,278.151,365.484,281.251,365.484,285.074z"/>
	</g>
</g>
<g transform="matrix(1.5387571062264505, 0, 0, 1.5387571062264505, 555.3600871723893, 303.4623377359867)">
	<text transform="matrix(0.6499 0 0 0.6499 74.8324 2.5309)" font-family="'Helvetica-Bold'" font-size="16.6186">Humanities</text>
</g>
<g transform="matrix(1.5387571062264505, 0, 0, 1.5387571062264505, 164.3137170105702, -137.5826029802439)">
	<g>
		<path fill="none" stroke="#666666" stroke-width="1.35" stroke-linecap="square" stroke-miterlimit="10" d="M329.415,312.097
			c0,3.809-3.088,6.898-6.897,6.898c-3.809,0-6.897-3.089-6.897-6.898c0-3.809,3.088-6.897,6.897-6.897
			C326.327,305.2,329.415,308.288,329.415,312.097z"/>
	</g>
</g>
<g transform="matrix(1.5387571062264505, 0, 0, 1.5387571062264505, 164.3137170105702, -137.5826029802439)">
	<g>
		<path fill="#FFBB61" d="M329.415,312.097c0,3.809-3.088,6.898-6.897,6.898c-3.809,0-6.897-3.089-6.897-6.898
			c0-3.809,3.088-6.897,6.897-6.897C326.327,305.2,329.415,308.288,329.415,312.097z"/>
	</g>
</g>
<g transform="matrix(1.5387571062264505, 0, 0, 1.5387571062264505, 511.22276866176315, 349.6649661919542)">
	<text transform="matrix(0.6499 0 0 0.6499 77.7008 -0.4713)" font-family="'Helvetica-Bold'" font-size="16.6186">Science</text>
</g>
<g transform="matrix(1.5387571062264505, 0, 0, 1.5387571062264505, 164.3137170105702, -137.5826029802439)">
	<g>
		<path fill="none" stroke="#666666" stroke-width="1.35" stroke-linecap="square" stroke-miterlimit="10" d="M165.186,178.206
			c0,3.364-2.727,6.091-6.091,6.091s-6.091-2.727-6.091-6.091c0-3.364,2.727-6.091,6.091-6.091S165.186,174.842,165.186,178.206z"/>
	</g>
</g>
<g transform="matrix(1.5387571062264505, 0, 0, 1.5387571062264505, 164.3137170105702, -137.5826029802439)">
	<g>
		<path fill="#FFBB61" d="M165.186,178.206c0,3.364-2.727,6.091-6.091,6.091s-6.091-2.727-6.091-6.091
			c0-3.364,2.727-6.091,6.091-6.091S165.186,174.842,165.186,178.206z"/>
	</g>
</g>
<g transform="matrix(1.5387571062264505, 0, 0, 1.5387571062264505, 247.79489413736587, 120.74793905343243)">
	<text transform="matrix(0.6499 0 0 0.6499 94.8201 14.4055)" font-family="'Helvetica-Bold'" font-size="16.6186">Law</text>
</g>
<g transform="matrix(1.5387571062264505, 0, 0, 1.5387571062264505, 164.3137170105702, -137.5826029802439)">
	<g>
		<path fill="none" stroke="#666666" stroke-width="1.35" stroke-linecap="square" stroke-miterlimit="10" d="M255.202,382.899
			c0,7.567-6.134,13.701-13.701,13.701c-7.568,0-13.701-6.134-13.701-13.701c0-7.567,6.134-13.702,13.701-13.702
			C249.068,369.197,255.202,375.331,255.202,382.899z"/>
	</g>
</g>
<g transform="matrix(1.5387571062264505, 0, 0, 1.5387571062264505, 164.3137170105702, -137.5826029802439)">
	<g>
		<path fill="#FFBB61" d="M255.202,382.899c0,7.567-6.134,13.701-13.701,13.701c-7.568,0-13.701-6.134-13.701-13.701
			c0-7.567,6.134-13.702,13.701-13.702C249.068,369.197,255.202,375.331,255.202,382.899z"/>
	</g>
</g>
<g transform="matrix(1.5387571062264505, 0, 0, 1.5387571062264505, 380.0361179752451, 470.7165665255201)">
	<text transform="matrix(0.6499 0 0 0.6499 86.2261 -8.3388)" font-family="'Helvetica-Bold'" font-size="16.6186">Music</text>
</g>
<g transform="matrix(1.5387571062264505, 0, 0, 1.5387571062264505, 164.3137170105702, -137.5826029802439)">
	<g>
		<path fill="none" stroke="#666666" stroke-width="1.35" stroke-linecap="square" stroke-miterlimit="10" d="M311.806,456.862
			c0,3.441-2.789,6.23-6.23,6.23c-3.441,0-6.23-2.789-6.23-6.23c0-3.44,2.789-6.229,6.23-6.229
			C309.017,450.633,311.806,453.422,311.806,456.862z"/>
	</g>
</g>
<g transform="matrix(1.5387571062264505, 0, 0, 1.5387571062264505, 164.3137170105702, -137.5826029802439)">
	<g>
		<path fill="#FFBB61" d="M311.806,456.862c0,3.441-2.789,6.23-6.23,6.23c-3.441,0-6.23-2.789-6.23-6.23
			c0-3.44,2.789-6.229,6.23-6.229C309.017,450.633,311.806,453.422,311.806,456.862z"/>
	</g>
</g>
<g transform="matrix(1.5387571062264505, 0, 0, 1.5387571062264505, 479.22793330912833, 597.1738213246058)">
	<text transform="matrix(0.6499 0 0 0.6499 79.7798 -16.5563)" font-family="'Helvetica-Bold'" font-size="16.6186">Religion</text>
</g>
<g transform="matrix(1.5387571062264505, 0, 0, 1.5387571062264505, 164.3137170105702, -137.5826029802439)">
	<g>
		<path fill="none" stroke="#666666" stroke-width="1.35" stroke-linecap="square" stroke-miterlimit="10" d="M252.3,328.249
			c0,7.998-6.484,14.483-14.483,14.483c-7.999,0-14.483-6.485-14.483-14.483c0-7.999,6.484-14.483,14.483-14.483
			C245.815,313.766,252.3,320.249,252.3,328.249z"/>
	</g>
</g>
<g transform="matrix(1.5387571062264505, 0, 0, 1.5387571062264505, 164.3137170105702, -137.5826029802439)">
	<g>
		<path fill="#FFBB61" d="M252.3,328.249c0,7.998-6.484,14.483-14.483,14.483c-7.999,0-14.483-6.485-14.483-14.483
			c0-7.999,6.484-14.483,14.483-14.483C245.815,313.766,252.3,320.249,252.3,328.249z"/>
	</g>
</g>
<g transform="matrix(1.5387571062264505, 0, 0, 1.5387571062264505, 372.84883373036035, 377.2787250796248)">
	<text transform="matrix(0.6499 0 0 0.6499 86.6931 -2.2663)" font-family="'Helvetica-Bold'" font-size="16.6186">Media</text>
</g>
<g transform="matrix(1.5387571062264505, 0, 0, 1.5387571062264505, 164.3137170105702, -137.5826029802439)">
	<g>
		<path fill="none" stroke="#666666" stroke-width="1.35" stroke-linecap="square" stroke-miterlimit="10" d="M142.924,332.838
			c0,9.569-7.757,17.325-17.325,17.325c-9.568,0-17.325-7.757-17.325-17.325c0-9.568,7.757-17.325,17.325-17.325
			C135.167,315.514,142.924,323.27,142.924,332.838z"/>
	</g>
</g>
<g transform="matrix(1.5387571062264505, 0, 0, 1.5387571062264505, 164.3137170105702, -137.5826029802439)">
	<g>
		<path fill="#FFBB61" d="M142.924,332.838c0,9.569-7.757,17.325-17.325,17.325c-9.568,0-17.325-7.757-17.325-17.325
			c0-9.568,7.757-17.325,17.325-17.325C135.167,315.514,142.924,323.27,142.924,332.838z"/>
	</g>
</g>
<g transform="matrix(1.5387571062264505, 0, 0, 1.5387571062264505, 179.26850089692346, 385.1267713863293)">
	<text transform="matrix(0.6499 0 0 0.6499 99.2738 -2.7762)" font-family="'Helvetica-Bold'" font-size="16.6186">Sports</text>
</g>
<g transform="matrix(1.5387571062264505, 0, 0, 1.5387571062264505, 164.3137170105702, -137.5826029802439)">
	<g>
		<path fill="none" stroke="#666666" stroke-width="1.35" stroke-linecap="square" stroke-miterlimit="10" d="M135.494,419.818
			c0,3.819-3.095,6.913-6.913,6.913c-3.818,0-6.913-3.095-6.913-6.913c0-3.817,3.095-6.913,6.913-6.913
			C132.399,412.905,135.494,416.001,135.494,419.818z"/>
	</g>
</g>
<g transform="matrix(1.5387571062264505, 0, 0, 1.5387571062264505, 164.3137170105702, -137.5826029802439)">
	<g>
		<path fill="#FFBB61" d="M135.494,419.818c0,3.819-3.095,6.913-6.913,6.913c-3.818,0-6.913-3.095-6.913-6.913
			c0-3.817,3.095-6.913,6.913-6.913C132.399,412.905,135.494,416.001,135.494,419.818z"/>
	</g>
</g>
<g transform="matrix(1.5387571062264505, 0, 0, 1.5387571062264505, 180.3811566348253, 533.8390427886303)">
	<text transform="matrix(0.6499 0 0 0.6499 99.2012 -12.4408)" font-family="'Helvetica-Bold'" font-size="16.6186">Royalty</text>
</g>
<g transform="matrix(1.5387571062264505, 0, 0, 1.5387571062264505, 164.3137170105702, -137.5826029802439)">
	<g>
		<path fill="none" stroke="#666666" stroke-width="1.35" stroke-linecap="square" stroke-miterlimit="10" d="M202.225,353.243
			c0,4.806-3.896,8.703-8.703,8.703c-4.806,0-8.703-3.897-8.703-8.703s3.897-8.703,8.703-8.703
			C198.328,344.54,202.225,348.437,202.225,353.243z"/>
	</g>
</g>
<g transform="matrix(1.5387571062264505, 0, 0, 1.5387571062264505, 164.3137170105702, -137.5826029802439)">
	<g>
		<path fill="#FFBB61" d="M202.225,353.243c0,4.806-3.896,8.703-8.703,8.703c-4.806,0-8.703-3.897-8.703-8.703
			s3.897-8.703,8.703-8.703C198.328,344.54,202.225,348.437,202.225,353.243z"/>
	</g>
</g>
<g transform="matrix(1.5387571062264505, 0, 0, 1.5387571062264505, 285.8906844649608, 420.0125757669541)">
	<text transform="matrix(0.6499 0 0 0.6499 92.3447 -5.0438)" font-family="'Helvetica-Bold'" font-size="16.6186">Personal</text>
</g>
<g>
	<g transform="matrix(1.6491887476862743, 0, 0, 1.6491887476862743, 201.02157122567252, 8.425020702063193)">
		<g>
			
				<path fill="none" stroke="#000000" stroke-width="2.0792" stroke-linecap="round" stroke-linejoin="round" stroke-miterlimit="10" d="
				M3.232,107.427l11.17-23.312"/>
		</g>
	</g>
	<g transform="matrix(1.6491887476862743, 0, 0, 1.6491887476862743, 201.02157122567252, 8.425020702063193)">
		<g>
			
				<path fill="none" stroke="#5F5F5F" stroke-width="1.2763" stroke-linecap="round" stroke-linejoin="round" stroke-miterlimit="10" d="
				M-48.915,107.427l11.171-23.312"/>
		</g>
	</g>
	<g transform="matrix(1.6491887476862743, 0, 0, 1.6491887476862743, 201.02157122567252, 8.425020702063193)">
		<g>
			
				<path fill="none" stroke="#C4C4C4" stroke-width="0.4632" stroke-linecap="round" stroke-linejoin="round" stroke-miterlimit="10" d="
				M-98.333,107.427l11.171-23.312"/>
		</g>
	</g>
	<text transform="matrix(1 0 0 1 22.5425 207.5225)" font-family="'Helvetica'" font-size="18">5.5%</text>
	<text transform="matrix(1 0 0 1 107.9741 207.5225)" font-family="'Helvetica'" font-size="18">6.5%</text>
	<text transform="matrix(1 0 0 1 188.0425 207.5225)" font-family="'Helvetica'" font-size="18">&gt;7.5%</text>
</g>
<text transform="matrix(1 0 0 1 22.5425 236.1895)" font-family="'Helvetica'" font-size="18">Average share of topic (target)</text>
<text transform="matrix(1 0 0 1 22.5425 257.7901)" font-family="'Helvetica'" font-size="18">in category (source)</text>
<g>
	<path fill="#FFBB61" d="M194.994,360.961c0,13.324-10.803,24.126-24.129,24.126c-13.325,0-24.127-10.802-24.127-24.126
		c0-13.327,10.802-24.128,24.127-24.128C184.19,336.834,194.994,347.634,194.994,360.961z"/>
</g>
<text transform="matrix(1 0 0 1 153.1802 366.5836)" font-family="'Helvetica'" font-size="13.68">&gt;10%</text>
<g transform="matrix(1.6491887476862743, 0, 0, 1.6491887476862743, 201.02157122567252, 8.425020702063193)">
	<g>
		<path fill="#FFBB61" d="M-44.976,213.762c0,5.92-4.799,10.718-10.718,10.718c-5.919,0-10.718-4.799-10.718-10.718
			c0-5.918,4.799-10.718,10.718-10.718C-49.775,203.044-44.976,207.843-44.976,213.762z"/>
	</g>
</g>
<text transform="matrix(1 0 0 1 99.2851 365.8238)" font-family="'Helvetica'" font-size="13.68">5%</text>
<g transform="matrix(1.6491887476862743, 0, 0, 1.6491887476862743, 201.02157122567252, 8.425020702063193)">
	<g>
		<path fill="#FFBB61" d="M-80.349,213.762c0,3.883-3.147,7.029-7.03,7.029c-3.883,0-7.031-3.147-7.031-7.029
			c0-3.882,3.147-7.031,7.031-7.031C-83.496,206.733-80.349,209.88-80.349,213.762z"/>
	</g>
</g>
<text transform="matrix(1 0 0 1 43.0361 365.8228)" font-family="'Helvetica'" font-size="13.68">&lt;1%</text>
<text transform="matrix(1 0 0 1 22.043 407.689)" font-family="'Helvetica'" font-size="18">Share of category of all</text>
<text transform="matrix(1 0 0 1 22.043 429.2906)" font-family="'Helvetica'" font-size="18">articles in a language edition</text>
<g transform="matrix(1.6491887476862743, 0, 0, 1.6491887476862743, 151.29711167001813, 300.29816141063003)">
	<text transform="matrix(0.6064 0 0 0.6064 -79.6996 146.5625)" font-family="'Helvetica-Bold'" font-size="32.0022">Network of topics</text>
	<text transform="matrix(0.6064 0 0 0.6064 -79.6996 169.8475)" font-family="'Helvetica-Bold'" font-size="32.0022">Portuguese Wikipedia</text>
</g>
</svg>
